<?xml version="1.0" standalone="no"?>
<!DOCTYPE svg PUBLIC "-//W3C//DTD SVG 20010904//EN"
 "http://www.w3.org/TR/2001/REC-SVG-20010904/DTD/svg10.dtd">
<svg version="1.0" xmlns="http://www.w3.org/2000/svg"
 width="406.000000pt" height="130.000000pt" viewBox="0 0 406.000000 130.000000"
 preserveAspectRatio="xMidYMid meet">

<g transform="translate(0.000000,130.000000) scale(0.100000,-0.100000)"
fill="#000000" stroke="none">
<path d="M648 1164 c-117 -153 -116 -151 -110 -179 6 -35 23 -40 61 -20 34 17
39 30 16 42 -19 11 -5 68 27 108 l21 27 12 -23 c7 -13 23 -64 35 -114 43 -172
26 -337 -46 -461 -25 -43 -68 -64 -130 -64 -49 0 -114 39 -145 88 -52 82 -33
159 52 209 16 10 29 23 29 31 0 21 -35 -3 -101 -67 -92 -90 -103 -176 -32
-247 75 -76 170 -93 259 -49 58 29 127 97 142 140 6 18 15 28 23 26 52 -15 69
-12 121 23 78 53 94 68 117 115 27 52 20 102 -16 131 -38 30 -83 25 -141 -13
l-49 -34 -6 91 c-3 50 -15 124 -26 163 -12 40 -21 95 -21 123 0 27 -4 50 -10
50 -5 0 -42 -43 -82 -96z m280 -349 c23 -49 15 -94 -22 -131 -59 -59 -116 -37
-116 44 0 37 6 50 34 78 43 43 87 47 104 9z"/>
<path d="M2525 1232 c-18 -15 -19 -21 -8 -62 52 -200 -40 -362 -248 -441 -28
-11 -53 -18 -55 -16 -2 2 12 39 31 83 44 102 65 210 65 329 0 107 -8 119 -57
89 -112 -70 -175 -115 -220 -158 -46 -43 -53 -54 -53 -87 0 -26 7 -46 21 -60
18 -18 23 -19 42 -6 14 10 21 23 19 38 -1 13 -5 45 -8 71 l-6 46 43 22 c24 12
53 30 64 40 11 9 33 26 49 36 l28 18 -4 -135 c-6 -159 -24 -237 -83 -355 l-43
-85 87 47 c198 108 342 229 394 334 34 68 37 162 7 228 -21 46 -34 51 -65 24z"/>
<path d="M1160 1047 c-58 -50 -57 -52 48 -52 83 0 102 3 134 23 42 26 60 57
28 47 -28 -9 -118 -10 -155 -2 -23 5 -36 1 -55 -16z"/>
<path d="M2677 1032 c-32 -20 -34 -33 -7 -57 18 -17 21 -17 45 -1 29 19 32 37
7 59 -16 14 -19 14 -45 -1z"/>
<path d="M3203 1040 c-14 -6 -26 -24 -34 -52 -15 -53 -16 -54 -56 -61 -27 -5
-31 -4 -26 11 4 11 -5 7 -25 -12 -24 -22 -37 -27 -59 -23 -93 18 -189 -47
-242 -163 -38 -81 -34 -112 16 -131 61 -23 174 17 204 74 16 28 5 30 -37 8
-43 -23 -90 -27 -129 -9 -20 9 -25 18 -25 46 0 64 104 134 174 116 17 -4 35 1
55 15 18 13 44 21 70 21 49 0 52 -12 21 -92 -12 -29 -24 -83 -27 -120 -6 -65
-5 -68 16 -68 24 0 96 34 124 58 31 27 18 32 -20 6 -22 -15 -40 -21 -46 -15
-13 13 0 94 26 165 21 57 23 59 70 71 73 19 82 35 19 35 -55 0 -60 6 -43 52
27 76 23 88 -26 68z"/>
<path d="M2649 902 c-48 -32 -110 -84 -105 -90 3 -2 17 3 30 12 32 21 40 20
31 -1 -19 -47 -55 -199 -50 -211 7 -19 44 -9 99 29 67 45 78 68 14 29 -18 -11
-37 -20 -42 -20 -13 0 1 69 34 167 39 115 39 117 -11 85z"/>
<path d="M1165 897 c-81 -37 -160 -211 -126 -276 25 -47 115 -15 166 59 15 22
28 40 29 40 1 0 0 -20 -2 -44 -4 -48 11 -86 33 -86 8 0 33 16 55 36 22 20 40
31 40 25 0 -20 40 -51 66 -51 23 0 98 44 150 88 38 32 66 98 58 138 -14 76
-90 95 -170 42 -68 -47 -105 -97 -111 -151 -5 -38 -9 -46 -29 -50 -13 -2 -26
-2 -29 1 -10 11 -4 71 15 147 11 43 18 80 16 83 -13 12 -134 11 -161 -1z m95
-77 c0 -32 -25 -74 -64 -108 -66 -58 -106 -51 -106 20 0 42 21 93 42 101 7 3
39 6 71 6 51 1 57 -1 57 -19z m288 -5 c23 -49 15 -94 -22 -131 -59 -59 -116
-37 -116 44 0 37 6 50 34 78 43 43 87 47 104 9z"/>
<path d="M3634 882 c-21 -16 -46 -37 -54 -47 -14 -17 -14 -17 18 -1 31 16 32
16 32 -3 0 -11 -12 -66 -26 -121 -14 -56 -24 -103 -21 -106 12 -13 65 49 71
83 13 70 37 133 59 148 19 13 23 13 43 -6 28 -27 66 -19 114 22 l35 30 -31 -6
c-22 -4 -37 0 -56 15 -14 11 -28 20 -31 20 -2 0 -22 -14 -43 -31 l-39 -31 -5
28 c-7 38 -20 39 -66 6z"/>
<path d="M3379 871 c-93 -59 -133 -135 -110 -212 21 -69 67 -76 144 -24 77 52
93 67 116 114 27 52 20 102 -16 131 -36 28 -81 25 -134 -9z m79 -56 c23 -49
15 -94 -22 -131 -59 -59 -116 -37 -116 44 0 37 6 50 34 78 43 43 87 47 104 9z"/>
<path d="M1132 128 c-15 -15 -15 -51 0 -66 14 -14 44 -16 52 -4 2 4 -8 8 -22
7 -23 0 -27 4 -27 30 0 26 4 30 27 30 14 -1 24 3 22 7 -8 12 -38 10 -52 -4z"/>
<path d="M1430 125 c0 -8 -6 -12 -14 -9 -8 3 -17 1 -20 -4 -3 -5 2 -9 12 -8
11 1 17 -6 17 -19 0 -13 -6 -20 -17 -19 -10 1 -15 -2 -13 -6 3 -5 14 -8 25 -7
17 1 20 9 20 44 0 24 -2 43 -5 43 -3 0 -5 -7 -5 -15z"/>
<path d="M1780 126 c-15 -20 -9 -56 12 -70 14 -8 21 -6 35 9 16 17 17 18 1 6
-26 -20 -50 -6 -46 26 2 21 8 28 25 27 12 0 20 3 17 8 -8 13 -30 9 -44 -6z"/>
<path d="M2370 125 c0 -8 -6 -12 -14 -9 -8 3 -17 1 -20 -4 -3 -5 2 -9 12 -8
11 1 17 -6 17 -19 0 -13 -6 -20 -17 -19 -10 1 -15 -2 -13 -6 3 -5 14 -8 25 -7
17 1 20 9 20 44 0 24 -2 43 -5 43 -3 0 -5 -7 -5 -15z"/>
<path d="M2462 98 c-2 -46 -1 -48 26 -47 22 1 23 2 5 6 -18 3 -23 13 -26 46
l-4 42 -1 -47z"/>
<path d="M2599 129 c-2 -27 3 -64 9 -71 4 -4 6 11 5 33 -1 39 -12 67 -14 38z"/>
<path d="M2897 126 c-4 -9 -12 -14 -19 -12 -7 1 -10 1 -5 -1 11 -7 9 -51 -3
-56 -6 -3 -5 -4 2 -3 7 1 16 16 19 32 l7 29 1 -27 c0 -15 4 -29 9 -31 8 -5 7
71 -1 79 -2 3 -7 -2 -10 -10z"/>
<path d="M1217 113 c-16 -15 -6 -33 18 -33 14 0 25 4 25 9 0 5 -9 7 -20 4 -22
-6 -28 12 -7 20 6 3 7 6 1 6 -6 1 -14 -2 -17 -6z"/>
<path d="M1281 83 c2 -35 2 -35 6 -8 3 16 10 33 16 37 8 5 6 8 -5 8 -14 0 -18
-8 -17 -37z"/>
<path d="M1326 111 c-3 -5 3 -7 14 -4 11 3 20 0 20 -6 0 -6 -6 -11 -12 -11
-10 0 -9 -3 1 -9 10 -7 10 -10 1 -16 -7 -4 -16 -1 -21 6 -7 11 -9 10 -9 -3 0
-13 7 -17 25 -16 22 2 26 7 23 33 -3 30 -30 47 -42 26z"/>
<path d="M1456 111 c-3 -5 3 -7 14 -4 16 4 20 0 20 -22 0 -23 -3 -26 -21 -22
-16 4 -19 3 -11 -5 19 -19 44 -1 40 29 -3 28 -30 43 -42 24z"/>
<path d="M1563 75 c0 -27 2 -38 4 -22 2 15 2 37 0 50 -2 12 -4 0 -4 -28z"/>
<path d="M1590 113 c5 -2 10 -15 10 -28 0 -13 -5 -26 -10 -28 -6 -3 -5 -4 2
-3 7 2 13 15 13 31 0 16 -6 29 -13 31 -7 1 -8 0 -2 -3z"/>
<path d="M1626 111 c-3 -5 3 -7 14 -4 16 4 20 0 20 -22 0 -23 -3 -26 -21 -22
-16 4 -19 3 -11 -5 19 -19 44 -1 40 29 -3 28 -30 43 -42 24z"/>
<path d="M1691 83 c2 -35 2 -35 6 -8 3 16 10 33 16 37 8 5 6 8 -5 8 -14 0 -18
-8 -17 -37z"/>
<path d="M1856 111 c-3 -5 3 -7 14 -4 16 4 20 0 20 -22 0 -23 -3 -26 -21 -22
-16 4 -19 3 -11 -5 19 -19 44 -1 40 29 -3 28 -30 43 -42 24z"/>
<path d="M1923 85 c0 -22 2 -30 4 -17 2 12 2 30 0 40 -3 9 -5 -1 -4 -23z"/>
<path d="M1947 113 c6 -4 13 -22 16 -38 4 -27 5 -27 3 4 0 21 -7 36 -16 38
-10 3 -11 2 -3 -4z"/>
<path d="M2057 113 c-16 -15 -6 -33 18 -33 14 0 25 4 25 9 0 5 -9 7 -20 4 -22
-6 -28 12 -7 20 6 3 7 6 1 6 -6 1 -14 -2 -17 -6z"/>
<path d="M2121 83 c2 -35 2 -35 6 -8 3 16 10 33 16 37 8 5 6 8 -5 8 -14 0 -18
-8 -17 -37z"/>
<path d="M2164 108 c-4 -6 0 -16 9 -23 22 -16 22 -29 0 -20 -14 5 -15 3 -6 -6
6 -6 16 -8 22 -5 16 10 13 36 -4 36 -8 0 -15 5 -15 11 0 6 7 8 16 5 8 -3 12
-2 9 4 -8 13 -22 13 -31 -2z"/>
<path d="M2226 111 c-3 -5 3 -7 14 -4 16 4 20 0 20 -22 0 -23 -3 -26 -21 -22
-16 4 -19 3 -11 -5 19 -19 44 -1 40 29 -3 28 -30 43 -42 24z"/>
<path d="M2291 83 c2 -35 2 -35 6 -8 3 16 10 33 16 37 8 5 6 8 -5 8 -14 0 -18
-8 -17 -37z"/>
<path d="M2407 113 c-16 -15 -6 -33 18 -33 14 0 25 4 25 9 0 5 -9 7 -20 4 -22
-6 -28 12 -7 20 6 3 7 6 1 6 -6 1 -14 -2 -17 -6z"/>
<path d="M2537 113 c-16 -15 -6 -33 18 -33 14 0 25 4 25 9 0 5 -9 7 -20 4 -22
-6 -28 12 -7 20 6 3 7 6 1 6 -6 1 -14 -2 -17 -6z"/>
<path d="M2631 83 c2 -35 2 -35 6 -8 3 16 10 33 16 37 8 5 6 8 -5 8 -14 0 -18
-8 -17 -37z"/>
<path d="M2676 111 c-3 -5 3 -7 14 -4 11 3 20 0 20 -6 0 -6 -6 -11 -12 -11
-10 0 -9 -3 1 -9 10 -7 10 -10 1 -16 -7 -4 -16 -1 -21 6 -7 11 -9 10 -9 -3 0
-13 7 -17 25 -16 22 2 26 7 23 33 -3 30 -30 47 -42 26z"/>
<path d="M2744 108 c-4 -6 0 -16 9 -23 22 -16 22 -29 0 -20 -14 5 -15 3 -6 -6
6 -6 16 -8 22 -5 16 10 13 36 -4 36 -8 0 -15 5 -15 11 0 6 7 8 16 5 8 -3 12
-2 9 4 -8 13 -22 13 -31 -2z"/>
<path d="M2843 75 c0 -27 2 -38 4 -22 2 15 2 37 0 50 -2 12 -4 0 -4 -28z"/>
<path d="M1168 93 c7 -3 16 -2 19 1 4 3 -2 6 -13 5 -11 0 -14 -3 -6 -6z"/>
<path d="M1217 58 c6 -10 30 -10 36 0 3 4 -5 7 -18 7 -13 0 -21 -3 -18 -7z"/>
<path d="M2057 58 c6 -10 30 -10 36 0 3 4 -5 7 -18 7 -13 0 -21 -3 -18 -7z"/>
<path d="M2407 58 c6 -10 30 -10 36 0 3 4 -5 7 -18 7 -13 0 -21 -3 -18 -7z"/>
<path d="M2537 58 c6 -10 30 -10 36 0 3 4 -5 7 -18 7 -13 0 -21 -3 -18 -7z"/>
</g>
</svg>
