<?xml version="1.0" encoding="UTF-8"?>
<svg version="1.1" xmlns="http://www.w3.org/2000/svg" width="626" height="626">
<path d="M0 0 C206.58 0 413.16 0 626 0 C626 206.58 626 413.16 626 626 C419.42 626 212.84 626 0 626 C0 419.42 0 212.84 0 0 Z " fill="#E90134" transform="translate(0,0)"/>
<path d="M0 0 C206.58 0 413.16 0 626 0 C626 206.58 626 413.16 626 626 C419.42 626 212.84 626 0 626 C0 419.42 0 212.84 0 0 Z M138 134 C135.55509435 136.47246497 133.09320984 138.91216765 130.5625 141.296875 C115.29900094 155.90888325 102.56795298 174.18885484 93 193 C92.68820801 193.6098877 92.37641602 194.21977539 92.05517578 194.84814453 C87.82999043 203.13064046 83.6282622 211.43588761 80 220 C79.54109375 221.07121094 79.0821875 222.14242187 78.609375 223.24609375 C70.71599174 242.8756916 66.21865818 263.99973881 64 285 C63.9079126 285.81815186 63.8158252 286.63630371 63.72094727 287.47924805 C59.21484738 331.09489414 66.35553411 374.96158652 84 415 C84.61983765 416.40983154 84.61983765 416.40983154 85.25219727 417.84814453 C87.83127889 423.62220786 90.59832957 429.23245769 93.6875 434.75 C94.32824463 435.89662109 94.32824463 435.89662109 94.98193359 437.06640625 C101.40354949 448.40115747 108.62983991 459.01234181 117 469 C117.73863281 469.92296875 118.47726563 470.8459375 119.23828125 471.796875 C125.28210538 479.20361437 131.82301986 486.03354473 138.5625 492.8125 C139.45614258 493.71532715 140.34978516 494.6181543 141.27050781 495.54833984 C142.53072754 496.80251709 142.53072754 496.80251709 143.81640625 498.08203125 C144.57381104 498.83718018 145.33121582 499.5923291 146.11157227 500.37036133 C147.83663035 502.21777559 147.83663035 502.21777559 150 502 C150 502.66 150 503.32 150 504 C151.36377379 505.3473791 151.36377379 505.3473791 153.19140625 506.6875 C153.88065186 507.21609619 154.56989746 507.74469238 155.2800293 508.28930664 C156.03324463 508.85383545 156.78645996 509.41836426 157.5625 510 C158.33827393 510.58450928 159.11404785 511.16901855 159.91333008 511.77124023 C179.16750202 526.1622349 200.72961911 540.13261298 223.84375 547.29296875 C226.18327606 548.06009596 228.41811351 548.98332614 230.6875 549.9375 C242.62121981 554.75864948 255.39321928 557.54641677 268 560 C268.77150391 560.15388184 269.54300781 560.30776367 270.33789062 560.46630859 C307.05451373 567.47763732 346.20709366 563.42866828 382 554 C382.81404297 553.79004395 383.62808594 553.58008789 384.46679688 553.36376953 C416.16656528 545.02211686 444.84637508 528.05522656 470.42578125 507.99609375 C472.23246853 506.59515718 474.09776083 505.26815944 476 504 C476 503.34 476 502.68 476 502 C476.55268555 501.77183594 477.10537109 501.54367187 477.67480469 501.30859375 C480.67246403 499.62154482 482.7676506 497.49187482 485.203125 495.0625 C485.6857782 494.58176025 486.1684314 494.10102051 486.66571045 493.60571289 C487.67999064 492.59278907 488.69176804 491.57735362 489.70117188 490.55957031 C491.25171972 488.99826835 492.81270503 487.44797503 494.375 485.8984375 C495.36001734 484.91209939 496.34441453 483.9251415 497.328125 482.9375 C498.67245605 481.58978516 498.67245605 481.58978516 500.04394531 480.21484375 C502.22065347 478.24264408 502.22065347 478.24264408 502 476 C502.66 476 503.32 476 504 476 C506.61657532 473.25024569 508.75850916 470.05657842 511 467 C511.63905273 466.13858398 511.63905273 466.13858398 512.29101562 465.25976562 C531.20060099 439.66362249 544.78067691 412.42929879 554 382 C554.28891113 381.07670898 554.57782227 380.15341797 554.87548828 379.20214844 C568.87715679 333.8964614 566.73930406 279.44352638 551 235 C550.49625221 233.45955387 549.9956835 231.91805994 549.5 230.375 C540.96422371 205.04907036 528.57031585 180.32679206 511.40795898 159.70825195 C510.29733519 158.36075157 509.20739077 156.99620722 508.12524414 155.62573242 C502.66303855 148.77725503 496.81505386 142.50266256 490.60424805 136.34350586 C489.03251687 134.78272578 487.47205482 133.21122294 485.91210938 131.63867188 C484.91210079 130.63998128 483.91147393 129.6419093 482.91015625 128.64453125 C482.01433838 127.75096924 481.11852051 126.85740723 480.19555664 125.93676758 C478.23797961 123.77949071 478.23797961 123.77949071 476 124 C476 123.34 476 122.68 476 122 C474.35968632 120.45564815 474.35968632 120.45564815 472.1875 118.875 C471.35734375 118.24980469 470.5271875 117.62460938 469.671875 116.98046875 C468.79015625 116.32691406 467.9084375 115.67335937 467 115 C466.18015625 114.37738281 465.3603125 113.75476563 464.515625 113.11328125 C456.65049931 107.23827069 448.39667181 102.06927262 440 97 C439.37528809 96.6169873 438.75057617 96.23397461 438.10693359 95.83935547 C426.86617688 88.9890081 414.98119896 83.96878973 402.76660156 79.10888672 C401.00649494 78.40341511 399.25236464 77.68270156 397.50683594 76.94189453 C312.84498691 41.40714104 200.41578724 68.10951945 138 134 Z " fill="#FEFEFE" transform="translate(0,0)"/>
<path d="M0 0 C1.45049744 0.00364059 1.45049744 0.00364059 2.93029785 0.00735474 C44.59254512 0.20984492 84.88760884 14.95527954 115.9453125 43.09667969 C117.38566545 44.39679727 118.84822057 45.67220288 120.3125 46.9453125 C125.77087326 51.7213891 131.10931913 56.69890488 135.5 62.5 C135.5 63.16 135.5 63.82 135.5 64.5 C136.16 64.5 136.82 64.5 137.5 64.5 C156.8363252 88.24525929 169.73482069 117.29069131 174.5 147.5 C174.67362061 148.54760498 174.84724121 149.59520996 175.02612305 150.67456055 C175.56545464 155.02839195 175.69879572 159.28572143 175.73828125 163.66796875 C175.746353 164.54286453 175.75442474 165.41776031 175.76274109 166.31916809 C175.7765218 168.17068542 175.78727062 170.02222752 175.79516602 171.8737793 C175.8065791 173.72639671 175.82685703 175.57898412 175.85668945 177.43139648 C176.2298178 200.68000226 171.88912951 224.54313131 161.5 245.5 C160.72110488 247.26202495 159.94226753 249.02407572 159.16455078 250.78662109 C149.41513393 272.53703931 134.05866839 293.46433306 115.5 308.5 C115.01047852 308.90186523 114.52095703 309.30373047 114.01660156 309.71777344 C100.99159654 320.37601126 87.76749838 328.78559075 72.38916016 335.64501953 C70.77018976 336.37771975 69.17000287 337.15168084 67.57421875 337.93359375 C59.52728306 341.85326956 51.14083375 344.29810254 42.5 346.5 C41.38359131 346.80067383 41.38359131 346.80067383 40.24462891 347.10742188 C13.40700862 354.09608714 -18.9848033 353.18059247 -45.5 345.5 C-46.88952881 345.10651367 -46.88952881 345.10651367 -48.30712891 344.70507812 C-60.36684091 341.20488679 -71.50301386 336.5273067 -82.5 330.5 C-83.71349101 329.85537337 -84.92703213 329.21084108 -86.140625 328.56640625 C-94.60274786 323.98762598 -102.09227106 318.58693739 -109.5 312.5 C-110.07782227 312.03045898 -110.65564453 311.56091797 -111.25097656 311.07714844 C-140.19620708 287.44354951 -160.80882661 254.72721182 -170.375 218.5625 C-170.56578125 217.84328369 -170.7565625 217.12406738 -170.953125 216.38305664 C-174.32399925 202.87360636 -174.94214775 189.60224383 -174.9375 175.75 C-174.93823517 174.79801727 -174.93897034 173.84603455 -174.93972778 172.86520386 C-174.90869718 157.55264833 -173.90494549 143.26148605 -169.5 128.5 C-169.10651367 127.16340332 -169.10651367 127.16340332 -168.70507812 125.79980469 C-165.34796419 114.74226036 -160.87685047 104.3779314 -155.41259766 94.20751953 C-154.59050155 92.66933329 -153.79913192 91.11481977 -153.01171875 89.55859375 C-142.47896037 69.17548105 -126.36794277 51.63648485 -108.5 37.5 C-107.19482422 36.43458984 -107.19482422 36.43458984 -105.86328125 35.34765625 C-88.77488782 21.8670834 -69.18083953 12.67018915 -48.5 6.25 C-47.75419678 6.01555176 -47.00839355 5.78110352 -46.23999023 5.53955078 C-30.92271392 1.01469321 -15.88795228 -0.08071274 0 0 Z " fill="#FEFCFD" transform="translate(312.5,87.5)"/>
<path d="M0 0 C2.09097332 0.0054215 4.18173778 -0.00000326 6.27270508 -0.00634766 C7.5869043 -0.00505859 8.90110352 -0.00376953 10.25512695 -0.00244141 C11.45580811 -0.00131348 12.65648926 -0.00018555 13.89355469 0.00097656 C16.6340332 0.13037109 16.6340332 0.13037109 17.6340332 1.13037109 C19.00325359 1.4103006 20.38013858 1.65283073 21.7590332 1.88037109 C38.74742494 5.21048197 54.9460644 12.54286503 68.6340332 23.13037109 C70.03395508 24.19191406 70.03395508 24.19191406 71.4621582 25.27490234 C76.66409149 29.30712717 76.66409149 29.30712717 78.6340332 31.13037109 C78.6340332 31.79037109 78.6340332 32.45037109 78.6340332 33.13037109 C79.2940332 33.13037109 79.9540332 33.13037109 80.6340332 33.13037109 C91.78944457 44.6867169 106.18699643 64.24230305 108.22509766 80.47387695 C108.67569629 83.40101951 109.40482603 86.18325783 110.15356445 89.04833984 C111.82069235 96.19704854 112.09426385 103.00028123 112.0090332 110.31787109 C111.99888184 111.58655029 111.98873047 112.85522949 111.97827148 114.16235352 C111.47314768 144.9181284 99.95995129 172.6919082 77.86499023 194.43579102 C63.38752287 208.06717263 44.24161814 218.68067985 24.6965332 222.75537109 C23.57375977 222.99513672 22.45098633 223.23490234 21.29418945 223.48193359 C4.94283934 226.37875763 -12.3132256 226.58568698 -28.3659668 222.13037109 C-29.05045898 221.94764648 -29.73495117 221.76492188 -30.44018555 221.57666016 C-47.58193821 216.89114518 -63.32298425 208.2505011 -76.3659668 196.13037109 C-77.30956055 195.25509766 -78.2531543 194.37982422 -79.2253418 193.47802734 C-85.12151882 187.86545385 -90.02419198 182.00727617 -94.3659668 175.13037109 C-95.09686523 174.03208984 -95.82776367 172.93380859 -96.58081055 171.80224609 C-100.86793425 165.19427347 -104.23422438 158.60942478 -106.7409668 151.13037109 C-106.96727783 150.45619141 -107.19358887 149.78201172 -107.42675781 149.08740234 C-111.34416954 136.54227009 -112.92348946 124.30138273 -112.8034668 111.19287109 C-112.80075775 110.49381653 -112.79804871 109.79476196 -112.79525757 109.07452393 C-112.73356113 98.56271242 -111.94944105 89.09360444 -108.3659668 79.13037109 C-107.82262695 77.36693359 -107.82262695 77.36693359 -107.26831055 75.56787109 C-98.57620555 48.69600753 -77.7924149 25.03169256 -52.74682617 12.10083008 C-49.97816587 10.71835859 -47.1852833 9.40634027 -44.3659668 8.13037109 C-43.23932617 7.61603516 -42.11268555 7.10169922 -40.9519043 6.57177734 C-37.14358181 5.04098105 -33.40928951 3.96506799 -29.4284668 3.00537109 C-28.76395508 2.83650391 -28.09944336 2.66763672 -27.41479492 2.49365234 C-18.26414957 0.23927415 -9.38797106 -0.02910305 0 0 Z " fill="#E90034" transform="translate(313.365966796875,112.86962890625)"/>
<path d="M0 0 C3.80915027 1.17737372 5.32439462 1.6815314 7.4375 5.0625 C8.05796198 8.19407696 8.07245391 10.9322886 7.4375 14.0625 C5.375 17.125 5.375 17.125 2.4375 19.0625 C-1.45709726 19.67743641 -3.55598099 19.63027996 -7 17.6875 C-9.43990848 13.58845376 -9.41541485 9.70115972 -8.5625 5.0625 C-5.95472166 1.03229712 -4.82481749 0.08464592 0 0 Z " fill="#F1F1F1" transform="translate(519.5625,589.9375)"/>
<path d="M0 0 C0.33 0 0.66 0 1 0 C1.01458252 0.54599854 1.02916504 1.09199707 1.04418945 1.65454102 C1.62962547 21.56143437 3.38418905 40.87740137 8.9140625 60.06640625 C9.85866519 63.35194644 10.51813664 66.61089438 11 70 C10.01 70 9.02 70 8 70 C7.65066406 68.73542969 7.30132812 67.47085938 6.94140625 66.16796875 C6.48181183 64.50780115 6.02217416 62.84764552 5.5625 61.1875 C5.33240234 60.35412109 5.10230469 59.52074219 4.86523438 58.66210938 C4.64287109 57.85966797 4.42050781 57.05722656 4.19140625 56.23046875 C3.98717041 55.49207764 3.78293457 54.75368652 3.57250977 53.99291992 C3.0907348 52.31584998 2.55178535 50.65535604 2 49 C1.79884352 46.8571247 1.63653329 44.71046116 1.5 42.5625 C1.30571408 38.36317387 1.30571408 38.36317387 0.48852539 34.26635742 C-0.20922275 31.0293779 -0.1107868 27.91827283 -0.09765625 24.609375 C-0.0962413 23.90476135 -0.09482635 23.20014771 -0.09336853 22.47418213 C-0.08778933 20.23274416 -0.07524073 17.99140757 -0.0625 15.75 C-0.05748231 14.22656395 -0.05291987 12.70312632 -0.04882812 11.1796875 C-0.03782674 7.45309228 -0.02057646 3.72655604 0 0 Z " fill="#D71230" transform="translate(136,252)"/>
<path d="M0 0 C0.64098633 0.14099121 1.28197266 0.28198242 1.94238281 0.42724609 C19.30890651 4.17760432 36.26139498 6.14297529 54 7 C54 7.33 54 7.66 54 8 C35.04553312 9.30099297 18.45328957 7.79785529 0 3 C0 2.01 0 1.02 0 0 Z " fill="#DE0D2B" transform="translate(266,432)"/>
<path d="M0 0 C3.80915027 1.17737372 5.32439462 1.6815314 7.4375 5.0625 C8.05796198 8.19407696 8.07245391 10.9322886 7.4375 14.0625 C5.375 17.125 5.375 17.125 2.4375 19.0625 C-1.45709726 19.67743641 -3.55598099 19.63027996 -7 17.6875 C-9.43990848 13.58845376 -9.41541485 9.70115972 -8.5625 5.0625 C-5.95472166 1.03229712 -4.82481749 0.08464592 0 0 Z M-6.5625 5.0625 C-6.99858804 7.23968256 -6.99858804 7.23968256 -6.875 9.5625 C-6.87113281 10.3359375 -6.86726562 11.109375 -6.86328125 11.90625 C-6.68075461 14.35574946 -6.68075461 14.35574946 -4.5625 17.0625 C-1.10480809 17.64592353 -1.10480809 17.64592353 2.4375 17.0625 C5.03805327 14.8813908 5.37697563 13.4688779 5.875 10.125 C5.3266602 6.28662143 4.28130195 4.67572341 1.4375 2.0625 C-2.46403893 1.30122411 -4.15191184 1.97694715 -6.5625 5.0625 Z " fill="#232323" transform="translate(519.5625,589.9375)"/>
<path d="M0 0 C5.07234884 0.09353106 10.14422013 0.19962375 15.21606445 0.31738281 C16.94157708 0.35567345 18.66716956 0.39052621 20.39282227 0.421875 C22.87284895 0.46752404 25.35232591 0.52551781 27.83203125 0.5859375 C28.60400345 0.59748871 29.37597565 0.60903992 30.17134094 0.62094116 C33.95246674 0.72521273 35.78018835 0.8534589 39 3 C32.23379739 3.8761989 25.63148025 4.15285152 18.8125 4.125 C17.85408203 4.12886719 16.89566406 4.13273437 15.90820312 4.13671875 C6.04699269 4.12308888 6.04699269 4.12308888 2 3 C1.34 2.01 0.68 1.02 0 0 Z " fill="#DF2042" transform="translate(292,334)"/>
<path d="M0 0 C0.66 0.33 1.32 0.66 2 1 C1.68832715 8.00111431 1.35355483 15.00087708 1 22 C0.96261719 22.76038574 0.92523438 23.52077148 0.88671875 24.30419922 C0.78874692 26.22417489 0.67622486 28.14339299 0.5625 30.0625 C0.50191406 31.12597656 0.44132813 32.18945312 0.37890625 33.28515625 C0.00307453 35.97797116 -0.73618161 37.63069605 -2 40 C-2.04980916 35.58920774 -2.08591133 31.17856888 -2.10986328 26.76757812 C-2.11985901 25.27015324 -2.13346014 23.77274756 -2.15087891 22.27539062 C-2.17541288 20.11062857 -2.18654744 17.94612677 -2.1953125 15.78125 C-2.20578613 14.48251953 -2.21625977 13.18378906 -2.22705078 11.84570312 C-1.97739336 7.61709702 -1.14353958 4.06767713 0 0 Z " fill="#D51E3C" transform="translate(203,200)"/>
<path d="M0 0 C3.375 -0.125 3.375 -0.125 7 0 C9 2 9 2 9.1953125 4.6015625 C9.17210937 5.59929688 9.14890625 6.59703125 9.125 7.625 C9.10695313 8.62789062 9.08890625 9.63078125 9.0703125 10.6640625 C9.03550781 11.82035156 9.03550781 11.82035156 9 13 C7.52093108 13.02689216 6.04172517 13.04634621 4.5625 13.0625 C3.32693359 13.07990234 3.32693359 13.07990234 2.06640625 13.09765625 C0 13 0 13 -1 12 C-1.25 9.5625 -1.25 9.5625 -1 7 C2.22791555 4.8480563 3.28400809 4.79913557 7 5 C6.34 4.01 5.68 3.02 5 2 C2.41619823 1.74969023 2.41619823 1.74969023 0 2 C0 1.34 0 0.68 0 0 Z " fill="#D2D2D2" transform="translate(599,596)"/>
<path d="M0 0 C2.33294775 -0.04241723 4.66702567 -0.04092937 7 0 C8 1 8 1 8.09765625 3.72265625 C8.08605469 4.82480469 8.07445312 5.92695312 8.0625 7.0625 C8.05347656 8.16722656 8.04445313 9.27195312 8.03515625 10.41015625 C8.02355469 11.26480469 8.01195312 12.11945312 8 13 C1.9453125 13.1953125 1.9453125 13.1953125 0 13 C-0.66 12.34 -1.32 11.68 -2 11 C-2 9.68 -2 8.36 -2 7 C1.22791555 4.8480563 2.28400809 4.79913557 6 5 C5.67 4.01 5.34 3.02 5 2 C3.35 1.67 1.7 1.34 0 1 C0 0.67 0 0.34 0 0 Z " fill="#252525" transform="translate(566,596)"/>
<path d="M0 0 C10.56 0 21.12 0 32 0 C32 0.33 32 0.66 32 1 C31.15518066 1.04487549 30.31036133 1.08975098 29.43994141 1.13598633 C13.8169872 1.98951961 -1.63749191 2.8389901 -17 6 C-16.67 5.01 -16.34 4.02 -16 3 C-10.68902698 0.76620019 -5.52901224 0.82361442 0 2 C0 1.34 0 0.68 0 0 Z " fill="#D10E22" transform="translate(290,86)"/>
<path d="M0 0 C0.66 0 1.32 0 2 0 C2 3.63 2 7.26 2 11 C2.66 11 3.32 11 4 11 C4.2475 10.360625 4.495 9.72125 4.75 9.0625 C6 7 6 7 8.125 6.25 C8.74375 6.1675 9.3625 6.085 10 6 C9.2265625 6.86625 9.2265625 6.86625 8.4375 7.75 C6.79713356 9.82860945 6.79713356 9.82860945 7.125 11.9375 C8.19200202 14.45257618 9.53054561 16.69998443 11 19 C9.125 18.8125 9.125 18.8125 7 18 C5.75 15.4375 5.75 15.4375 5 13 C4.01 13.495 4.01 13.495 3 14 C2.34444881 16.52733235 2.34444881 16.52733235 2 19 C1.34 19 0.68 19 0 19 C0 12.73 0 6.46 0 0 Z " fill="#272727" transform="translate(530,590)"/>
<path d="M0 0 C0 0.66 0 1.32 0 2 C0.66 2.33 1.32 2.66 2 3 C1.40461426 3.11593506 0.80922852 3.23187012 0.19580078 3.35131836 C-2.49506396 3.87703798 -5.1850318 4.40721295 -7.875 4.9375 C-9.28072266 5.21110352 -9.28072266 5.21110352 -10.71484375 5.49023438 C-11.61074219 5.66748047 -12.50664062 5.84472656 -13.4296875 6.02734375 C-14.67081299 6.27085571 -14.67081299 6.27085571 -15.93701172 6.51928711 C-18.04718366 6.92668942 -18.04718366 6.92668942 -20 8 C-20 8.66 -20 9.32 -20 10 C-22.375 10.1875 -22.375 10.1875 -25 10 C-25.66 9.01 -26.32 8.02 -27 7 C-22.00508292 4.72127312 -17.1437281 3.09900293 -11.8125 1.8125 C-11.11447266 1.63525391 -10.41644531 1.45800781 -9.69726562 1.27539062 C-6.33021225 0.44564103 -3.49196475 0 0 0 Z " fill="#E21D40" transform="translate(296,114)"/>
<path d="M0 0 C0.33 0 0.66 0 1 0 C1.23319241 18.78454568 1.0257906 37.29376339 -1 56 C-1.33 56 -1.66 56 -2 56 C-2 46.1 -2 36.2 -2 26 C-1.67 26 -1.34 26 -1 26 C-0.67 17.42 -0.34 8.84 0 0 Z " fill="#BB1C2C" transform="translate(562,296)"/>
<path d="M0 0 C3.95831733 -0.02940464 7.91660597 -0.04693328 11.875 -0.0625 C12.98359375 -0.07087891 14.0921875 -0.07925781 15.234375 -0.08789062 C21.89051489 -0.10746751 28.3939117 0.17120222 35 1 C35 1.33 35 1.66 35 2 C27.45077186 3.02540318 20.04909157 3.11725965 12.4375 3.0625 C11.23802734 3.05798828 10.03855469 3.05347656 8.80273438 3.04882812 C5.86843641 3.03713769 2.93424551 3.02075138 0 3 C0 2.01 0 1.02 0 0 Z " fill="#F42E4D" transform="translate(301,85)"/>
<path d="M0 0 C0.33 0 0.66 0 1 0 C1.050211 3.91027835 1.08609395 7.82042656 1.10986328 11.73095703 C1.12462224 13.69961157 1.15006161 15.6681769 1.17578125 17.63671875 C1.21640861 25.64030889 0.62574252 33.15904566 -1 41 C-1.33 41 -1.66 41 -2 41 C-2 33.74 -2 26.48 -2 19 C-1.67 19 -1.34 19 -1 19 C-0.67 12.73 -0.34 6.46 0 0 Z " fill="#C91630" transform="translate(424,209)"/>
<path d="M0 0 C0.75 1.625 0.75 1.625 1 4 C0.401875 4.886875 -0.19625 5.77375 -0.8125 6.6875 C-3.46496275 10.70408645 -4.20896768 14.31625602 -5 19 C-5.99 19 -6.98 19 -8 19 C-8 19.66 -8 20.32 -8 21 C-8.66 21 -9.32 21 -10 21 C-9.48080319 15.718795 -7.67578487 12.13622624 -5 7.6875 C-4.44699219 6.73907227 -4.44699219 6.73907227 -3.8828125 5.77148438 C-1.1945211 1.1945211 -1.1945211 1.1945211 0 0 Z " fill="#D71737" transform="translate(219,163)"/>
<path d="M0 0 C0.66 0.33 1.32 0.66 2 1 C0.625 2.5 0.625 2.5 -1 4 C-1.66 4 -2.32 4 -3 4 C-3.33 4.99 -3.66 5.98 -4 7 C-4.66 7 -5.32 7 -6 7 C-6.33 8.32 -6.66 9.64 -7 11 C-7.639375 11.103125 -8.27875 11.20625 -8.9375 11.3125 C-9.618125 11.539375 -10.29875 11.76625 -11 12 C-11.33 12.99 -11.66 13.98 -12 15 C-12.66 14.67 -13.32 14.34 -14 14 C-14 14.66 -14 15.32 -14 16 C-14.66 16 -15.32 16 -16 16 C-16 16.66 -16 17.32 -16 18 C-16.66 17.67 -17.32 17.34 -18 17 C-18 16.34 -18 15.68 -18 15 C-16.55235738 13.70958086 -15.03910851 12.49232866 -13.5 11.3125 C-8.85358404 7.69200209 -4.39080929 3.92474574 0 0 Z " fill="#DB1636" transform="translate(437,387)"/>
<path d="M0 0 C8.58 1.65 17.16 3.3 26 5 C26 5.33 26 5.66 26 6 C16.80987806 6.36706108 8.80646119 5.70968037 0 3 C0 2.01 0 1.02 0 0 Z " fill="#D61734" transform="translate(266,432)"/>
<path d="M0 0 C2.475 0.495 2.475 0.495 5 1 C5 1.66 5 2.32 5 3 C5.66 3 6.32 3 7 3 C8.55078125 4.57421875 8.55078125 4.57421875 10.3125 6.6875 C12.43644684 9.19802294 14.55501344 11.60823421 16.9375 13.875 C19 16 19 16 19 18 C19.99 18.33 20.98 18.66 22 19 C21.34 19.99 20.68 20.98 20 22 C19.50371094 21.35933594 19.00742187 20.71867187 18.49609375 20.05859375 C14.27622264 14.68566488 9.93431148 9.71873476 5 5 C4.01835758 4.02331537 3.03892007 3.04440558 2.0625 2.0625 C1.381875 1.381875 0.70125 0.70125 0 0 Z " fill="#D81D39" transform="translate(428,130)"/>
<path d="M0 0 C0.99 0 1.98 0 3 0 C3.66 2.31 4.32 4.62 5 7 C7.22189824 4.77810176 7.92598892 2.91517292 9 0 C9.66 0.33 10.32 0.66 11 1 C9.68 4.96 8.36 8.92 7 13 C6.01 13 5.02 13 4 13 C3.51891725 11.58398286 3.04021859 10.16715563 2.5625 8.75 C2.29566406 7.96109375 2.02882813 7.1721875 1.75390625 6.359375 C1.08045292 4.25178012 0.50849405 2.15246027 0 0 Z " fill="#262626" transform="translate(585,596)"/>
<path d="M0 0 C5.42121998 -0.27908468 9.37857235 0.57278947 14.4375 2.5 C15.07365234 2.73847656 15.70980469 2.97695313 16.36523438 3.22265625 C17.91402732 3.80490924 19.45760253 4.40101069 21 5 C21 5.99 21 6.98 21 8 C18.62828053 7.28848416 16.2568526 6.57616298 13.88671875 5.859375 C11.97743591 5.29098227 10.06330707 4.73859732 8.14453125 4.203125 C7.25121094 3.95046875 6.35789063 3.6978125 5.4375 3.4375 C4.61121094 3.20933594 3.78492188 2.98117187 2.93359375 2.74609375 C1 2 1 2 0 0 Z " fill="#D92944" transform="translate(217,544)"/>
<path d="M0 0 C0.66 0.33 1.32 0.66 2 1 C0.24584045 5.49171158 -1.68457064 9.8992064 -3.625 14.3125 C-4.11226562 15.42334961 -4.11226562 15.42334961 -4.609375 16.55664062 C-5.40553151 18.37140913 -6.20266717 20.18574802 -7 22 C-7.66 21.67 -8.32 21.34 -9 21 C-6.76686274 13.55620912 -3.59727921 6.88023305 0 0 Z " fill="#D5183D" transform="translate(157,177)"/>
<path d="M0 0 C4.67155643 0.49263686 7.09115745 2.36685304 10.625 5.375 C11.56601563 6.16648437 12.50703125 6.95796875 13.4765625 7.7734375 C15.3927258 9.46416982 17.23065104 11.15940209 19 13 C17.68 13 16.36 13 15 13 C15 12.34 15 11.68 15 11 C13.68 11 12.36 11 11 11 C8.625 8.8125 8.625 8.8125 6 6 C4.90840287 5.06840056 3.8042555 4.15128738 2.6875 3.25 C1.800625 2.5075 0.91375 1.765 0 1 C0 0.67 0 0.34 0 0 Z " fill="#DC1C3E" transform="translate(197,397)"/>
<path d="M0 0 C0.33 0 0.66 0 1 0 C1.10561568 5.06955283 0.94098715 9.91930107 0.22265625 14.9375 C-0.17460793 18.61742084 -0.0769997 22.30401426 0 26 C-0.99 26 -1.98 26 -3 26 C-2.39214597 17.26609735 -1.31858334 8.6540033 0 0 Z " fill="#D51130" transform="translate(488,276)"/>
<path d="M0 0 C3.375 -0.125 3.375 -0.125 7 0 C9 2 9 2 9.1953125 4.6015625 C9.17210937 5.59929688 9.14890625 6.59703125 9.125 7.625 C9.10695313 8.62789062 9.08890625 9.63078125 9.0703125 10.6640625 C9.03550781 11.82035156 9.03550781 11.82035156 9 13 C7.68 12.34 6.36 11.68 5 11 C5.66 9.35 6.32 7.7 7 6 C5.35 6 3.7 6 2 6 C2 5.67 2 5.34 2 5 C3.65 5 5.3 5 7 5 C6.34 4.01 5.68 3.02 5 2 C2.41619823 1.74969023 2.41619823 1.74969023 0 2 C0 1.34 0 0.68 0 0 Z " fill="#222222" transform="translate(599,596)"/>
<path d="M0 0 C0.66 0 1.32 0 2 0 C2.50904657 1.87256417 3.00682455 3.74819341 3.5 5.625 C3.7784375 6.66914063 4.056875 7.71328125 4.34375 8.7890625 C4.99118596 11.95687418 5.1161292 14.77741467 5 18 C3.24729559 15.37094339 2.03130161 13.02020381 0.8125 10.125 C0.26529297 8.86042969 0.26529297 8.86042969 -0.29296875 7.5703125 C-1.09711128 4.64696561 -0.81264813 2.88826533 0 0 Z " fill="#DE1A3A" transform="translate(75,385)"/>
<path d="M0 0 C0.33 0 0.66 0 1 0 C1.3986014 7.97202797 1.3986014 7.97202797 -2 12 C-3.13156335 14.63012021 -4.05316948 17.29476994 -5 20 C-5.99 20 -6.98 20 -8 20 C-6.22421921 15.44904551 -4.18893034 11.04515956 -2.12109375 6.62109375 C-1.17069887 4.39909038 -0.4936299 2.35722143 0 0 Z " fill="#D52D47" transform="translate(479,318)"/>
<path d="M0 0 C2.96926381 3.55391974 5.42318536 7.18517995 7.75 11.1875 C8.67039062 12.75564453 8.67039062 12.75564453 9.609375 14.35546875 C11 17 11 17 11 19 C8 18 8 18 6 15 C6 13.68 6 12.36 6 11 C5.34 11 4.68 11 4 11 C0 4.5 0 4.5 0 0 Z " fill="#D81C3A" transform="translate(524,179)"/>
<path d="M0 0 C1.32 0 2.64 0 4 0 C4 0.66 4 1.32 4 2 C4.66 2 5.32 2 6 2 C7.7265625 3.6796875 7.7265625 3.6796875 9.625 5.875 C10.25664062 6.59429687 10.88828125 7.31359375 11.5390625 8.0546875 C13 10 13 10 13 12 C12.01 12 11.02 12 10 12 C10 11.34 10 10.68 10 10 C9.34 10 8.68 10 8 10 C8 9.34 8 8.68 8 8 C7.34 8 6.68 8 6 8 C6 7.34 6 6.68 6 6 C5.34 6 4.68 6 4 6 C4 5.01 4 4.02 4 3 C2.68 2.67 1.36 2.34 0 2 C0 1.34 0 0.68 0 0 Z " fill="#DD1735" transform="translate(388,144)"/>
<path d="M0 0 C2.00620099 6.16088672 -0.33923564 13.29836208 -3 19 C-3.66 18.67 -4.32 18.34 -5 18 C-4.01 13.05 -3.02 8.1 -2 3 C-1.34 3 -0.68 3 0 3 C0 2.01 0 1.02 0 0 Z " fill="#DA1736" transform="translate(71,253)"/>
<path d="M0 0 C5.81261371 1.73982995 10.83169994 3.8110489 16 7 C14.02 7.99 14.02 7.99 12 9 C12 8.34 12 7.68 12 7 C11.38511719 6.80664062 10.77023437 6.61328125 10.13671875 6.4140625 C8.92435547 6.02347656 8.92435547 6.02347656 7.6875 5.625 C6.88699219 5.36976562 6.08648437 5.11453125 5.26171875 4.8515625 C3 4 3 4 0 2 C0 1.34 0 0.68 0 0 Z " fill="#DA1235" transform="translate(354,121)"/>
<path d="M0 0 C0.66 0 1.32 0 2 0 C1.96519531 0.75925781 1.93039062 1.51851562 1.89453125 2.30078125 C1.86746094 3.29464844 1.84039063 4.28851562 1.8125 5.3125 C1.77769531 6.29863281 1.74289062 7.28476562 1.70703125 8.30078125 C1.76395976 11.01464239 1.76395976 11.01464239 3.375 12.78125 C5.16278978 14.12209234 6.9631826 15.08694393 9 16 C5.62090549 16.30719041 3.59642541 16.34529892 0.625 14.625 C-1.85279908 10.62240148 -1.48836113 6.59539817 -1 2 C-0.67 1.34 -0.34 0.68 0 0 Z " fill="#1A1A1A" transform="translate(512,593)"/>
<path d="M0 0 C4.91319147 1.53537234 9.32235164 4.41360843 13 8 C13 8.99 13 9.98 13 11 C10.525 10.01 10.525 10.01 8 9 C8 8.01 8 7.02 8 6 C7.236875 5.71125 6.47375 5.4225 5.6875 5.125 C3 4 3 4 0 2 C0 1.34 0 0.68 0 0 Z " fill="#DA183C" transform="translate(370,129)"/>
<path d="M0 0 C-0.33 0.99 -0.66 1.98 -1 3 C-4.83724172 3.90413673 -8.37502274 4.10576898 -12.3125 4.0625 C-13.38113281 4.05347656 -14.44976562 4.04445313 -15.55078125 4.03515625 C-16.35902344 4.02355469 -17.16726563 4.01195312 -18 4 C-15.07675293 2.05116862 -13.48916982 1.51920273 -10.125 0.875 C-8.86042969 0.62363281 -8.86042969 0.62363281 -7.5703125 0.3671875 C-5.00848085 0.00121155 -2.58390011 -0.06482904 0 0 Z " fill="#DC2445" transform="translate(363,432)"/>
<path d="M0 0 C0.33 0 0.66 0 1 0 C1 6.27 1 12.54 1 19 C0.67 19 0.34 19 0 19 C-0.33 17.35 -0.66 15.7 -1 14 C-1.33 14 -1.66 14 -2 14 C-2.3690205 4.58997722 -2.3690205 4.58997722 0 0 Z " fill="#F3F3F3" transform="translate(529,590)"/>
<path d="M0 0 C2.0894988 3.1342482 3.56445886 6.26109446 5.125 9.6875 C5.66382813 10.86699219 6.20265625 12.04648437 6.7578125 13.26171875 C7.16773438 14.16535156 7.57765625 15.06898438 8 16 C7.34 16.33 6.68 16.66 6 17 C3.4500131 15.72500655 3.34023585 14.81508648 2.375 12.1875 C2.11460937 11.50042969 1.85421875 10.81335938 1.5859375 10.10546875 C1 8 1 8 1 4 C0.34 4 -0.32 4 -1 4 C-0.67 2.68 -0.34 1.36 0 0 Z " fill="#DC1739" transform="translate(152,333)"/>
<path d="M0 0 C1.33855056 0.78281305 2.67073644 1.57651877 4 2.375 C5.11375 3.03628906 5.11375 3.03628906 6.25 3.7109375 C6.8275 4.13632813 7.405 4.56171875 8 5 C8 5.66 8 6.32 8 7 C8.598125 7.2475 9.19625 7.495 9.8125 7.75 C12.28647521 9.16370012 13.43370255 10.65055383 15 13 C14.01 13 13.02 13 12 13 C12 12.34 12 11.68 12 11 C11.38125 10.690625 10.7625 10.38125 10.125 10.0625 C8.75 9.375 7.375 8.6875 6 8 C6 7.34 6 6.68 6 6 C5.071875 5.9071875 5.071875 5.9071875 4.125 5.8125 C2 5 2 5 0.75 2.4375 C0.5025 1.633125 0.255 0.82875 0 0 Z " fill="#D71838" transform="translate(468,117)"/>
<path d="M0 0 C0 0.33 0 0.66 0 1 C-8.91 2.485 -8.91 2.485 -18 4 C-17.67 3.01 -17.34 2.02 -17 1 C-11.3886991 -1.40659732 -5.86367775 -1.06612323 0 0 Z " fill="#D61536" transform="translate(291,88)"/>
<path d="M0 0 C4.54075781 4.14010271 7.71842138 8.82390176 11 14 C10.01 14 9.02 14 8 14 C7.67 13.01 7.34 12.02 7 11 C6.01 11 5.02 11 4 11 C3.8453125 10.13375 3.8453125 10.13375 3.6875 9.25 C3.11076107 6.90012053 3.11076107 6.90012053 1.4375 4.9375 C0 3 0 3 0 0 Z " fill="#D61F3D" transform="translate(164,357)"/>
<path d="M0 0 C3.30286086 1.10095362 3.78510901 1.6896019 5.6875 4.4375 C6.34298828 5.36369141 6.34298828 5.36369141 7.01171875 6.30859375 C8 8 8 8 8 10 C8.66 10 9.32 10 10 10 C9.67 10.99 9.34 11.98 9 13 C5.48026899 9.74098981 2.47239725 6.1139069 0 2 C0 1.34 0 0.68 0 0 Z " fill="#D91D3F" transform="translate(107,454)"/>
<path d="M0 0 C0 0.99 0 1.98 0 3 C-0.99 3.33 -1.98 3.66 -3 4 C-3.433125 4.928125 -3.433125 4.928125 -3.875 5.875 C-5.38066201 8.71902824 -7.13246422 9.6379205 -10 11 C-10.66 10.67 -11.32 10.34 -12 10 C-10.37744772 8.51814875 -8.75188112 7.03959744 -7.125 5.5625 C-6.22007812 4.73878906 -5.31515625 3.91507812 -4.3828125 3.06640625 C-2 1 -2 1 0 0 Z " fill="#D61E41" transform="translate(157,117)"/>
<path d="M0 0 C0.54140625 0.24621094 1.0828125 0.49242188 1.640625 0.74609375 C-1.37921643 3.34651276 -3.51345219 4.84871176 -7.359375 5.74609375 C-9.08963602 7.22499444 -9.08963602 7.22499444 -10.359375 8.74609375 C-11.349375 8.41609375 -12.339375 8.08609375 -13.359375 7.74609375 C-11.62132159 6.37662753 -9.86846267 5.02593421 -8.109375 3.68359375 C-7.13484375 2.92949219 -6.1603125 2.17539063 -5.15625 1.3984375 C-2.359375 -0.25390625 -2.359375 -0.25390625 0 0 Z " fill="#D81E41" transform="translate(172.359375,107.25390625)"/>
<path d="M0 0 C4.62 2.31 9.24 4.62 14 7 C9.40410325 8.14897419 8.73828148 7.7140729 4.75 5.5625 C3.85796875 5.08941406 2.9659375 4.61632812 2.046875 4.12890625 C1.37140625 3.75636719 0.6959375 3.38382812 0 3 C0 2.01 0 1.02 0 0 Z " fill="#DD2140" transform="translate(419,86)"/>
<path d="M0 0 C2.375 -0.125 2.375 -0.125 5 0 C7 2 7 2 7.1953125 4.6015625 C7.17210937 5.59929688 7.14890625 6.59703125 7.125 7.625 C7.10695313 8.62789062 7.08890625 9.63078125 7.0703125 10.6640625 C7.03550781 11.82035156 7.03550781 11.82035156 7 13 C6.34 13 5.68 13 5 13 C4.97421875 12.31292969 4.9484375 11.62585938 4.921875 10.91796875 C4.86515625 10.01691406 4.8084375 9.11585938 4.75 8.1875 C4.70359375 7.29417969 4.6571875 6.40085937 4.609375 5.48046875 C4.20878584 2.83946485 4.20878584 2.83946485 1.953125 1.17578125 C1.30859375 0.78777344 0.6640625 0.39976562 0 0 Z " fill="#080808" transform="translate(554,596)"/>
<path d="M0 0 C5.46737191 1.74807129 10.75824848 3.65794081 16 6 C16 6.33 16 6.66 16 7 C11.80924525 7.19491883 8.75920564 6.93330576 5 5 C4.67 4.34 4.34 3.68 4 3 C1.97536745 2.34786708 1.97536745 2.34786708 0 2 C0 1.34 0 0.68 0 0 Z " fill="#D61433" transform="translate(235,421)"/>
<path d="M0 0 C0.33 0 0.66 0 1 0 C0.66009167 5.37992836 0.31442207 9.53273547 -3 14 C-3.66 13.67 -4.32 13.34 -5 13 C-3.58192622 8.52761347 -1.88695626 4.28853694 0 0 Z " fill="#D81B3C" transform="translate(87,204)"/>
<path d="M0 0 C1.98 0.99 1.98 0.99 4 2 C3.67 2.66 3.34 3.32 3 4 C2.77532169 5.53668865 2.59203195 7.07968054 2.4375 8.625 C2.35371094 9.44226563 2.26992188 10.25953125 2.18359375 11.1015625 C2.12300781 11.72804688 2.06242188 12.35453125 2 13 C1.34 13 0.68 13 0 13 C0 8.71 0 4.42 0 0 Z " fill="#1B1B1B" transform="translate(550,596)"/>
<path d="M0 0 C1.15957207 3.47871621 0.77456651 4.34219645 -0.4375 7.6875 C-0.72496094 8.49574219 -1.01242188 9.30398437 -1.30859375 10.13671875 C-1.53675781 10.75160156 -1.76492187 11.36648437 -2 12 C-2.66 12 -3.32 12 -4 12 C-4.33 12.99 -4.66 13.98 -5 15 C-4.45144652 10.428721 -3.58255197 6.32564205 -2 2 C-1.34 2 -0.68 2 0 2 C0 1.34 0 0.68 0 0 Z " fill="#DC113B" transform="translate(146,204)"/>
<path d="M0 0 C0.33 0.66 0.66 1.32 1 2 C0.030625 2.45375 -0.93875 2.9075 -1.9375 3.375 C-5.07079582 4.65786221 -5.07079582 4.65786221 -6 7 C-8.64 7 -11.28 7 -14 7 C-11.51169497 4.51169497 -9.1322066 3.69174309 -5.875 2.375 C-4.77929688 1.92898438 -3.68359375 1.48296875 -2.5546875 1.0234375 C-1.71164062 0.68570312 -0.86859375 0.34796875 0 0 Z " fill="#D52443" transform="translate(388,421)"/>
<path d="M0 0 C1.26829268 5.07317073 1.26829268 5.07317073 0 8 C-1.9375 9.3125 -1.9375 9.3125 -4 10 C-4.66 9.67 -5.32 9.34 -6 9 C-4.02 6.03 -2.04 3.06 0 0 Z " fill="#D81C3B" transform="translate(463,353)"/>
<path d="M0 0 C6.875 2.75 6.875 2.75 8 5 C10.02463255 5.65213292 10.02463255 5.65213292 12 6 C12 6.66 12 7.32 12 8 C8.2397015 7.41892368 5.46964968 6.34800504 2.1875 4.4375 C1.39730469 3.98246094 0.60710937 3.52742188 -0.20703125 3.05859375 C-0.79871094 2.70925781 -1.39039063 2.35992187 -2 2 C-1.34 1.34 -0.68 0.68 0 0 Z " fill="#D91E3F" transform="translate(260,322)"/>
<path d="M0 0 C-3.59046199 3.27365652 -6.11871164 4.67458078 -11 5 C-11.66 4.67 -12.32 4.34 -13 4 C-11.40233897 3.13372601 -9.79660056 2.28233535 -8.1875 1.4375 C-7.29417969 0.96183594 -6.40085937 0.48617187 -5.48046875 -0.00390625 C-3 -1 -3 -1 0 0 Z " fill="#DD2542" transform="translate(270,123)"/>
<path d="M0 0 C-4.9422919 2.51449939 -9.8817659 4.86740246 -15 7 C-15.33 6.34 -15.66 5.68 -16 5 C-13.90163996 3.96728358 -11.79609109 2.94916283 -9.6875 1.9375 C-8.51574219 1.36902344 -7.34398437 0.80054687 -6.13671875 0.21484375 C-3 -1 -3 -1 0 0 Z " fill="#CF2544" transform="translate(216,84)"/>
<path d="M0 0 C5.21979128 -0.1799928 9.07262981 0.02905192 14 2 C11.49923002 3.62433191 10.41017471 4.07333427 7.421875 3.5390625 C6.54015625 3.23742187 5.6584375 2.93578125 4.75 2.625 C3.85796875 2.32851563 2.9659375 2.03203125 2.046875 1.7265625 C1.37140625 1.48679687 0.6959375 1.24703125 0 1 C0 0.67 0 0.34 0 0 Z " fill="#DF1A3D" transform="translate(273,330)"/>
<path d="M0 0 C1.450192 2.90038399 2.37715911 4.96115449 3.125 8 C3.37636719 8.99 3.37636719 8.99 3.6328125 10 C4 12 4 12 4 16 C3.34 16 2.68 16 2 16 C2 14.02 2 12.04 2 10 C1.34 10 0.68 10 0 10 C0 6.7 0 3.4 0 0 Z " fill="#D4223E" transform="translate(556,256)"/>
<path d="M0 0 C0.99 0.495 0.99 0.495 2 1 C2.703125 3.3984375 2.703125 3.3984375 3.25 6.375 C3.44078125 7.35210937 3.6315625 8.32921875 3.828125 9.3359375 C4 12 4 12 2 15 C-0.10428384 9.87080814 -0.21755666 5.4389165 0 0 Z " fill="#DE2C4B" transform="translate(418,185)"/>
<path d="M0 0 C0.33 1.32 0.66 2.64 1 4 C0.34 4 -0.32 4 -1 4 C-1.103125 4.928125 -1.20625 5.85625 -1.3125 6.8125 C-2.0070192 10.03254358 -2.47740939 11.02579865 -5 13 C-5.66 12.34 -6.32 11.68 -7 11 C-4.69 7.37 -2.38 3.74 0 0 Z " fill="#D61E3C" transform="translate(101,179)"/>
<path d="M0 0 C1 2 1 2 0.25 4.3125 C-1.00173326 7.00372652 -2.42139202 9.48857821 -4 12 C-4.99 11.67 -5.98 11.34 -7 11 C-4.69 7.37 -2.38 3.74 0 0 Z " fill="#DB2442" transform="translate(109,167)"/>
<path d="M0 0 C0.66 0.66 1.32 1.32 2 2 C-0.64 4.64 -3.28 7.28 -6 10 C-6.66 9.34 -7.32 8.68 -8 8 C-3.375 3.125 -3.375 3.125 0 2 C0 1.34 0 0.68 0 0 Z " fill="#F3D5E0" transform="translate(236,140)"/>
<path d="M0 0 C0.66 0.33 1.32 0.66 2 1 C2 1.99 2 2.98 2 4 C1.34 4 0.68 4 0 4 C0 4.66 0 5.32 0 6 C-2.375 6.1875 -2.375 6.1875 -5 6 C-5.66 5.01 -6.32 4.02 -7 3 C-4.69631264 1.93347808 -2.35981813 0.93578995 0 0 Z " fill="#D82B47" transform="translate(276,118)"/>
<path d="M0 0 C-0.33 0.66 -0.66 1.32 -1 2 C-4.96 2 -8.92 2 -13 2 C-9.02291084 -1.97708916 -5.28744325 -0.91513441 0 0 Z " fill="#D8203A" transform="translate(261,70)"/>
<path d="M0 0 C0 1.65 0 3.3 0 5 C-1.32 5.33 -2.64 5.66 -4 6 C-4.33 4.35 -4.66 2.7 -5 1 C-3 0 -3 0 0 0 Z " fill="#E7E7E7" transform="translate(572,602)"/>
<path d="M0 0 C0.99 0.33 1.98 0.66 3 1 C3.33 3.97 3.66 6.94 4 10 C3.01 10.495 3.01 10.495 2 11 C0.80712589 7.12315913 0 4.08378077 0 0 Z " fill="#D51435" transform="translate(71,374)"/>
<path d="M0 0 C0.66 0.33 1.32 0.66 2 1 C2.4140625 3.94140625 2.4140625 3.94140625 2.625 7.5625 C2.69976562 8.76003906 2.77453125 9.95757812 2.8515625 11.19140625 C2.90054688 12.11824219 2.94953125 13.04507812 3 14 C1.26263341 11.39395012 0.54996173 9.92766764 -0.1875 7 C-0.36667969 6.319375 -0.54585937 5.63875 -0.73046875 4.9375 C-1 3 -1 3 0 0 Z " fill="#DB193A" transform="translate(205,251)"/>
<path d="M0 0 C0 3.20395416 -0.74335022 5.09399739 -2 8 C-2.66 8 -3.32 8 -4 8 C-4 8.99 -4 9.98 -4 11 C-4.99 11 -5.98 11 -7 11 C-5.5140084 6.40693504 -3.14985318 3.56430755 0 0 Z " fill="#DA203F" transform="translate(227,152)"/>
<path d="M0 0 C0.66 0.99 1.32 1.98 2 3 C-0.31 5.31 -2.62 7.62 -5 10 C-5 5.63755776 -3.03368793 3.03368793 0 0 Z " fill="#DF0D32" transform="translate(232,147)"/>
<path d="M0 0 C-2.6895528 2.6895528 -5.45327417 3.69331154 -9 5 C-9.99 4.67 -10.98 4.34 -12 4 C-11.34 4 -10.68 4 -10 4 C-10 3.34 -10 2.68 -10 2 C-8.68 2 -7.36 2 -6 2 C-6 1.34 -6 0.68 -6 0 C-3.50907189 -1.24546405 -2.58919267 -0.7767578 0 0 Z " fill="#D41B3C" transform="translate(422,538)"/>
<path d="M0 0 C1.65 0 3.3 0 5 0 C5 0.99 5 1.98 5 3 C3 4.6875 3 4.6875 1 6 C0 5 0 5 -0.0625 2.4375 C-0.041875 1.633125 -0.02125 0.82875 0 0 Z " fill="#E10B2A" transform="translate(184,136)"/>
<path d="M0 0 C0.33 0.99 0.66 1.98 1 3 C-2.66291938 5.47785723 -5.6109185 6.48964169 -10 7 C-7.2180632 3.72713318 -3.72045933 2.03572303 0 0 Z " fill="#D72746" transform="translate(189,95)"/>
<path d="M0 0 C0.33 0.66 0.66 1.32 1 2 C-0.41433206 2.2236337 -1.83167618 2.42826476 -3.25 2.625 C-4.03890625 2.74101563 -4.8278125 2.85703125 -5.640625 2.9765625 C-8.32152459 3.00319395 -9.72694089 2.36592084 -12 1 C-7.95858806 0.36605303 -4.0934693 -0.12404452 0 0 Z " fill="#E01D3F" transform="translate(270,67)"/>
<path d="M0 0 C1.23593891 3.70781672 0.5678132 4.67510253 -0.9375 8.1875 C-1.31777344 9.08855469 -1.69804687 9.98960937 -2.08984375 10.91796875 C-2.54037109 11.94857422 -2.54037109 11.94857422 -3 13 C-3.66 12.67 -4.32 12.34 -5 12 C-3.68938409 7.76570244 -2.05643741 3.92592596 0 0 Z " fill="#D91F41" transform="translate(470,340)"/>
<path d="M0 0 C1.21386936 3.64160808 0.6674695 4.33165469 -0.9375 7.6875 C-1.31777344 8.49574219 -1.69804687 9.30398438 -2.08984375 10.13671875 C-2.39019531 10.75160156 -2.69054687 11.36648438 -3 12 C-3.33 12 -3.66 12 -4 12 C-4 9.36 -4 6.72 -4 4 C-3.01 4 -2.02 4 -1 4 C-0.67 2.68 -0.34 1.36 0 0 Z " fill="#CE1939" transform="translate(418,262)"/>
<path d="M0 0 C3.96 0 7.92 0 12 0 C11.67 0.99 11.34 1.98 11 3 C9.741875 2.87625 8.48375 2.7525 7.1875 2.625 C6.12595703 2.52058594 6.12595703 2.52058594 5.04296875 2.4140625 C3 2 3 2 0 0 Z " fill="#D0132C" transform="translate(241,552)"/>
<path d="M0 0 C1.65 0 3.3 0 5 0 C2.42215154 2.64752004 0.08351902 4.94432065 -3 7 C-3 6.01 -3 5.02 -3 4 C-2.34 4 -1.68 4 -1 4 C-0.67 2.68 -0.34 1.36 0 0 Z " fill="#CF1B3A" transform="translate(469,504)"/>
<path d="M0 0 C0.66 0.33 1.32 0.66 2 1 C0.625 2.5 0.625 2.5 -1 4 C-1.66 4 -2.32 4 -3 4 C-3.33 4.99 -3.66 5.98 -4 7 C-4.66 7 -5.32 7 -6 7 C-6.33 7.66 -6.66 8.32 -7 9 C-7 6 -7 6 -5.46875 4.39453125 C-4.49421875 3.61142578 -4.49421875 3.61142578 -3.5 2.8125 C-2.8503125 2.28269531 -2.200625 1.75289063 -1.53125 1.20703125 C-1.0259375 0.80871094 -0.520625 0.41039062 0 0 Z " fill="#D92647" transform="translate(437,387)"/>
<path d="M0 0 C0.33 0.99 0.66 1.98 1 3 C0.67 3.66 0.34 4.32 0 5 C-0.99 5 -1.98 5 -3 5 C-3.33 6.32 -3.66 7.64 -4 9 C-4.66 8.67 -5.32 8.34 -6 8 C-4.55746343 4.63408134 -2.66735273 2.48952921 0 0 Z " fill="#DA2444" transform="translate(445,378)"/>
<path d="M0 0 C1.75 0.125 1.75 0.125 4 1 C6.25 4.0625 6.25 4.0625 8 7 C7.01 6.67 6.02 6.34 5 6 C4.67 5.34 4.34 4.68 4 4 C3.01 4 2.02 4 1 4 C0.67 2.68 0.34 1.36 0 0 Z " fill="#D91938" transform="translate(512,165)"/>
<path d="M0 0 C0.8125 1.6875 0.8125 1.6875 1 4 C-1.4375 6.75 -1.4375 6.75 -4 9 C-4.8125 7.3125 -4.8125 7.3125 -5 5 C-2.5625 2.25 -2.5625 2.25 0 0 Z " fill="#D71C3D" transform="translate(127,145)"/>
<path d="M0 0 C0.66 0.33 1.32 0.66 2 1 C-0.77280706 4.08089673 -3.06326356 5.68775452 -7 7 C-7.33 6.34 -7.66 5.68 -8 5 C-6.71475739 4.13619741 -5.42157581 3.28419631 -4.125 2.4375 C-3.04605469 1.72400391 -3.04605469 1.72400391 -1.9453125 0.99609375 C-1.30335938 0.66738281 -0.66140625 0.33867187 0 0 Z " fill="#DB1C3E" transform="translate(254,129)"/>
<path d="M0 0 C2.3125 0.8125 2.3125 0.8125 3.3125 2.8125 C-0.38291586 3.76274979 -2.99208414 3.76274979 -6.6875 2.8125 C-4.2961605 0.59829676 -3.32534138 -0.23200056 0 0 Z " fill="#E01036" transform="translate(366.6875,554.1875)"/>
<path d="M0 0 C0.99 0.33 1.98 0.66 3 1 C2.67 1.99 2.34 2.98 2 4 C1.34 4 0.68 4 0 4 C-0.33 4.66 -0.66 5.32 -1 6 C-1.99 5.01 -2.98 4.02 -4 3 C-2.1875 1.4375 -2.1875 1.4375 0 0 Z " fill="#E10F34" transform="translate(414,406)"/>
<path d="M0 0 C3.93673644 1.31224548 6.22719294 2.91910327 9 6 C7.68 6 6.36 6 5 6 C5 5.34 5 4.68 5 4 C3.68 4 2.36 4 1 4 C0.67 2.68 0.34 1.36 0 0 Z " fill="#DB102F" transform="translate(207,404)"/>
<path d="M0 0 C0.33 0 0.66 0 1 0 C0.979375 0.9075 0.95875 1.815 0.9375 2.75 C0.85845564 5.85818053 0.85845564 5.85818053 1.625 8.1875 C1.810625 9.0846875 1.810625 9.0846875 2 10 C1.34 10.99 0.68 11.98 0 13 C-0.19658808 11.58456585 -0.38187546 10.16755969 -0.5625 8.75 C-0.66691406 7.96109375 -0.77132812 7.1721875 -0.87890625 6.359375 C-1.00027349 3.99467126 -0.69633257 2.2488963 0 0 Z " fill="#E22E4F" transform="translate(558,349)"/>
<path d="M0 0 C2.45811625 3.68717438 2.31118164 5.64345704 2 10 C1.34 10.99 0.68 11.98 0 13 C-1.28571429 4.57142857 -1.28571429 4.57142857 0 0 Z " fill="#DA1C3E" transform="translate(67,349)"/>
<path d="M0 0 C1.5625 1.25 1.5625 1.25 3 3 C2.6875 5.1875 2.6875 5.1875 2 7 C1.34 7 0.68 7 0 7 C-0.33 8.65 -0.66 10.3 -1 12 C-2.45606519 7.47907032 -1.27032841 4.48351204 0 0 Z " fill="#CE2240" transform="translate(483,304)"/>
<path d="M0 0 C3 1 3 1 4.25 2.8125 C5.11637742 5.33943414 4.88492145 6.52221994 4 9 C0 3.375 0 3.375 0 0 Z " fill="#D91738" transform="translate(219,285)"/>
<path d="M0 0 C2.86299506 2.86299506 2.99421225 4.65852284 3.0625 8.6875 C3.041875 9.780625 3.02125 10.87375 3 12 C0.79107828 8.68661742 -0.08787021 5.85901066 -1 2 C-0.67 1.34 -0.34 0.68 0 0 Z " fill="#DA1638" transform="translate(479,201)"/>
<path d="M0 0 C0.33 1.32 0.66 2.64 1 4 C0.34 4 -0.32 4 -1 4 C-1.33 5.98 -1.66 7.96 -2 10 C-2.99 10.33 -3.98 10.66 -5 11 C-3.77472971 6.94718288 -2.30119506 3.55639236 0 0 Z " fill="#D1223F" transform="translate(93,193)"/>
<path d="M0 0 C2.52259061 1.97420135 2.9929808 2.96745642 3.6875 6.1875 C3.790625 7.115625 3.89375 8.04375 4 9 C3.01 9.495 3.01 9.495 2 10 C1.46987262 8.71211992 0.9511671 7.41953322 0.4375 6.125 C0.14746094 5.40570313 -0.14257812 4.68640625 -0.44140625 3.9453125 C-1 2 -1 2 0 0 Z " fill="#DC1A3B" transform="translate(475,191)"/>
<path d="M0 0 C3.33523252 1.38009621 5.18607951 2.84950652 7 6 C6.67 6.99 6.34 7.98 6 9 C3.59927045 6.11912454 1.52708963 3.43595166 0 0 Z " fill="#DA193B" transform="translate(457,162)"/>
<path d="M0 0 C0.66 0.33 1.32 0.66 2 1 C-0.2008849 3.47859908 -2.06372969 4.61210366 -5.1875 5.6875 C-6.26064453 6.06455078 -6.26064453 6.06455078 -7.35546875 6.44921875 C-7.89816406 6.63097656 -8.44085938 6.81273437 -9 7 C-9 6.34 -9 5.68 -9 5 C-7.54735962 4.1361871 -6.0876837 3.28419546 -4.625 2.4375 C-3.40683594 1.72400391 -3.40683594 1.72400391 -2.1640625 0.99609375 C-1.44992187 0.66738281 -0.73578125 0.33867187 0 0 Z " fill="#D21936" transform="translate(405,412)"/>
<path d="M0 0 C2.4375 0.6875 2.4375 0.6875 5 2 C5.8125 4.625 5.8125 4.625 6 7 C3.69 5.35 1.38 3.7 -1 2 C-0.67 1.34 -0.34 0.68 0 0 Z " fill="#DE1F3D" transform="translate(240,309)"/>
<path d="M0 0 C2.56616632 3.84924948 2.55097676 6.4349304 3 11 C2.34 11 1.68 11 1 11 C-0.28317892 7.15046324 -0.06643637 4.05261865 0 0 Z " fill="#D3132D" transform="translate(552,241)"/>
<path d="M0 0 C0.33 0 0.66 0 1 0 C1 2.64 1 5.28 1 8 C-0.32 8.33 -1.64 8.66 -3 9 C-2.01 6.03 -1.02 3.06 0 0 Z " fill="#F2D4DB" transform="translate(151,194)"/>
<path d="M0 0 C6.625 -0.125 6.625 -0.125 10 1 C10 1.99 10 2.98 10 4 C6.7 3.01 3.4 2.02 0 1 C0 0.67 0 0.34 0 0 Z " fill="#D6203E" transform="translate(363,94)"/>
<path d="M0 0 C0 3 0 3 -1.25 4.75 C-1.8275 5.1625 -2.405 5.575 -3 6 C-4.32 5.67 -5.64 5.34 -7 5 C-4.69 3.35 -2.38 1.7 0 0 Z " fill="#F8DBE2" transform="translate(459,516)"/>
<path d="M0 0 C2.23551759 3.35327639 2.17283528 3.90743657 1.625 7.6875 C1.51414062 8.49574219 1.40328125 9.30398437 1.2890625 10.13671875 C1.19367188 10.75160156 1.09828125 11.36648437 1 12 C0.67 12 0.34 12 0 12 C-1.28571429 3.42857143 -1.28571429 3.42857143 0 0 Z " fill="#D71437" transform="translate(487,230)"/>
<path d="M0 0 C0.66 0.99 1.32 1.98 2 3 C0.625 6.6875 0.625 6.6875 -1 10 C-1.66 9.67 -2.32 9.34 -3 9 C-2.01 6.03 -1.02 3.06 0 0 Z " fill="#E4163C" transform="translate(151,189)"/>
<path d="M0 0 C2.64 0 5.28 0 8 0 C8.33 0.99 8.66 1.98 9 3 C6.03 2.67 3.06 2.34 0 2 C0 1.34 0 0.68 0 0 Z " fill="#D91B3B" transform="translate(330,115)"/>
<path d="M0 0 C3.37503669 1.1858237 5.64722731 2.27573689 8 5 C7.01 5.495 7.01 5.495 6 6 C3.96166576 4.7260411 1.96147874 3.38938077 0 2 C0 1.34 0 0.68 0 0 Z " fill="#D51D40" transform="translate(451,105)"/>
<path d="M0 0 C0.66 0.33 1.32 0.66 2 1 C2 2.32 2 3.64 2 5 C2.99 5.66 3.98 6.32 5 7 C3.33388095 7.042721 1.66617115 7.04063832 0 7 C-1 6 -1 6 -1.125 3.5 C-1 1 -1 1 0 0 Z " fill="#0E0E0E" transform="translate(599,602)"/>
<path d="M0 0 C0 3 0 3 -1.6875 5.25 C-4 7 -4 7 -6.75 6.75 C-7.4925 6.5025 -8.235 6.255 -9 6 C-9 5.67 -9 5.34 -9 5 C-8.071875 4.731875 -7.14375 4.46375 -6.1875 4.1875 C-3.23759634 3.08851629 -1.94384814 2.37581439 0 0 Z " fill="#383838" transform="translate(526,602)"/>
<path d="M0 0 C-2.98646769 1.99097846 -5.59687262 2.94124926 -9 4 C-9 3.01 -9 2.02 -9 1 C-6.04335481 -0.4783226 -3.25770263 -0.06032783 0 0 Z " fill="#D61A3E" transform="translate(403,546)"/>
<path d="M0 0 C3.36720387 1.39332574 4.9859524 2.9789286 7 6 C4.625 5.8125 4.625 5.8125 2 5 C0.6875 2.4375 0.6875 2.4375 0 0 Z " fill="#DD1B3D" transform="translate(177,376)"/>
<path d="M0 0 C1.76462683 3.08809695 2 4.23312136 2 8 C2.66 8 3.32 8 4 8 C3.67 9.65 3.34 11.3 3 13 C0.89172945 9.83759418 0.66182535 8.49342531 0.375 4.8125 C0.30023438 3.91144531 0.22546875 3.01039063 0.1484375 2.08203125 C0.09945312 1.39496094 0.05046875 0.70789063 0 0 Z " fill="#D30A23" transform="translate(68,360)"/>
<path d="M0 0 C0.33 0 0.66 0 1 0 C1.16873478 1.43725871 1.33490737 2.87481838 1.5 4.3125 C1.5928125 5.11300781 1.685625 5.91351563 1.78125 6.73828125 C2 9 2 9 2 12 C1.01 11.67 0.02 11.34 -1 11 C-0.67 7.37 -0.34 3.74 0 0 Z " fill="#CF1334" transform="translate(65,277)"/>
<path d="M0 0 C3 1 3 1 5 4 C5.125 6.6875 5.125 6.6875 5 9 C0.57142857 3.85714286 0.57142857 3.85714286 0 0 Z " fill="#D11F3B" transform="translate(213,276)"/>
<path d="M0 0 C0.33 1.32 0.66 2.64 1 4 C0.34 4 -0.32 4 -1 4 C-1 4.66 -1 5.32 -1 6 C-2.32 5.67 -3.64 5.34 -5 5 C-3.35 3.35 -1.7 1.7 0 0 Z " fill="#F0D0D6" transform="translate(487,492)"/>
<path d="M0 0 C2.31 0 4.62 0 7 0 C7 0.99 7 1.98 7 3 C4.69 3 2.38 3 0 3 C0 2.01 0 1.02 0 0 Z " fill="#CE1432" transform="translate(333,437)"/>
<path d="M0 0 C2.64 0.66 5.28 1.32 8 2 C7.34 2.66 6.68 3.32 6 4 C2.875 3.625 2.875 3.625 0 3 C0 2.01 0 1.02 0 0 Z " fill="#DC0F2E" transform="translate(266,432)"/>
<path d="M0 0 C-0.33 0.99 -0.66 1.98 -1 3 C-3.31 2.67 -5.62 2.34 -8 2 C-4.77208445 -0.1519437 -3.71599191 -0.20086443 0 0 Z " fill="#E0173E" transform="translate(363,432)"/>
<path d="M0 0 C1.77706209 2.66559313 2.87548273 5.0280615 4 8 C3.34 8.66 2.68 9.32 2 10 C1.67 8.02 1.34 6.04 1 4 C0.34 4 -0.32 4 -1 4 C-0.67 2.68 -0.34 1.36 0 0 Z " fill="#DC2C49" transform="translate(152,333)"/>
<path d="M0 0 C2.5654594 2.5654594 2.54046087 4.47686668 3 8 C2.01 8 1.02 8 0 8 C0 5.36 0 2.72 0 0 Z " fill="#D71331" transform="translate(144,314)"/>
<path d="M0 0 C0.6875 1.8125 0.6875 1.8125 1 4 C-0.3125 5.75 -0.3125 5.75 -2 7 C-2.66 7 -3.32 7 -4 7 C-2.79618552 4.50638429 -1.54571278 2.31856917 0 0 Z " fill="#D82342" transform="translate(115,159)"/>
<path d="M0 0 C1.32 0.66 2.64 1.32 4 2 C4 2.99 4 3.98 4 5 C1.525 4.01 1.525 4.01 -1 3 C-0.67 2.01 -0.34 1.02 0 0 Z " fill="#D71231" transform="translate(379,135)"/>
<path d="M0 0 C0 0.66 0 1.32 0 2 C-2.70879335 3.35439668 -5.00933268 3.06501451 -8 3 C-6.23110084 -0.53779831 -3.70375662 0 0 0 Z " fill="#D61830" transform="translate(285,117)"/>
<path d="M0 0 C2.31 0.66 4.62 1.32 7 2 C7.33 3.32 7.66 4.64 8 6 C6.66402348 5.19185349 5.331275 4.37836819 4 3.5625 C3.2575 3.11003906 2.515 2.65757813 1.75 2.19140625 C1.1725 1.79824219 0.595 1.40507813 0 1 C0 0.67 0 0.34 0 0 Z " fill="#D81C3B" transform="translate(404,112)"/>
<path d="M0 0 C-3.26545761 1.88391785 -6.28111761 2.49287967 -10 3 C-10 2.34 -10 1.68 -10 1 C-6.78548731 -0.60725635 -3.56387464 -0.05748185 0 0 Z " fill="#CF1431" transform="translate(270,92)"/>
<path d="M0 0 C-0.33 0.99 -0.66 1.98 -1 3 C-3.64 3 -6.28 3 -9 3 C-5.73209435 0.82139623 -3.91954654 0 0 0 Z " fill="#D21F41" transform="translate(226,79)"/>
</svg>
