<?xml version="1.0" encoding="UTF-8"?>
<!DOCTYPE svg PUBLIC "-//W3C//DTD SVG 1.1//EN" "http://www.w3.org/Graphics/SVG/1.1/DTD/svg11.dtd">
<svg xmlns="http://www.w3.org/2000/svg" version="1.1" width="408px" height="408px" style="shape-rendering:geometricPrecision; text-rendering:geometricPrecision; image-rendering:optimizeQuality; fill-rule:evenodd; clip-rule:evenodd" xmlns:xlink="http://www.w3.org/1999/xlink">
<g><path style="opacity:1" fill="#9e2040" d="M 226.5,59.5 C 226.5,59.8333 226.5,60.1667 226.5,60.5C 211.497,59.2775 196.497,59.2775 181.5,60.5C 182.5,59.8333 183.5,59.1667 184.5,58.5C 198.595,56.9493 212.595,57.2826 226.5,59.5 Z"/></g>
<g><path style="opacity:1" fill="#77273b" d="M 184.5,58.5 C 183.5,59.1667 182.5,59.8333 181.5,60.5C 177.881,61.2436 174.215,61.577 170.5,61.5C 175.05,60.5085 179.717,59.5085 184.5,58.5 Z"/></g>
<g><path style="opacity:1" fill="#7b263c" d="M 226.5,60.5 C 226.5,60.1667 226.5,59.8333 226.5,59.5C 231.375,60.0848 236.042,61.0848 240.5,62.5C 235.728,62.4781 231.061,61.8115 226.5,60.5 Z"/></g>
<g><path style="opacity:1" fill="#8f213c" d="M 169.5,61.5 C 166.761,64.0242 163.428,65.0242 159.5,64.5C 162.583,62.9754 165.916,61.9754 169.5,61.5 Z"/></g>
<g><path style="opacity:1" fill="#7d1f35" d="M 159.5,64.5 C 155.635,68.1239 150.968,69.7905 145.5,69.5C 149.817,67.0595 154.483,65.3928 159.5,64.5 Z"/></g>
<g><path style="opacity:0.988" fill="#8e213b" d="M 240.5,62.5 C 249.116,64.3025 257.116,67.3025 264.5,71.5C 259.594,69.8842 254.594,68.5508 249.5,67.5C 245.917,66.5501 242.917,64.8834 240.5,62.5 Z"/></g>
<g><path style="opacity:0.89" fill="#5b2232" d="M 265.5,71.5 C 267.153,71.6596 268.486,72.3263 269.5,73.5C 267.62,73.7709 266.287,73.1042 265.5,71.5 Z"/></g>
<g><path style="opacity:0.514" fill="#3b2229" d="M 138.5,72.5 C 138.027,73.9063 137.027,74.573 135.5,74.5C 135.973,73.0937 136.973,72.427 138.5,72.5 Z"/></g>
<g><path style="opacity:1" fill="#941c3a" d="M 269.5,73.5 C 272.317,74.0951 274.65,75.4284 276.5,77.5C 273.834,77.067 271.168,76.567 268.5,76C 269.252,75.3292 269.586,74.4959 269.5,73.5 Z"/></g>
<g><path style="opacity:0.165" fill="#1e171a" d="M 132.5,75.5 C 132.027,76.9063 131.027,77.573 129.5,77.5C 129.973,76.0937 130.973,75.427 132.5,75.5 Z"/></g>
<g><path style="opacity:0.263" fill="#2c2024" d="M 129.5,77.5 C 129.027,78.9063 128.027,79.573 126.5,79.5C 126.973,78.0937 127.973,77.427 129.5,77.5 Z"/></g>
<g><path style="opacity:0.161" fill="#221a1d" d="M 124.5,80.5 C 124.027,81.9063 123.027,82.573 121.5,82.5C 121.973,81.0937 122.973,80.427 124.5,80.5 Z"/></g>
<g><path style="opacity:1" fill="#c6013d" d="M 226.5,60.5 C 231.061,61.8115 235.728,62.4781 240.5,62.5C 242.917,64.8834 245.917,66.5501 249.5,67.5C 254.594,68.5508 259.594,69.8842 264.5,71.5C 264.833,71.5 265.167,71.5 265.5,71.5C 266.287,73.1042 267.62,73.7709 269.5,73.5C 269.586,74.4959 269.252,75.3292 268.5,76C 271.168,76.567 273.834,77.067 276.5,77.5C 276.833,77.5 277.167,77.5 277.5,77.5C 277.5,78.8333 277.5,80.1667 277.5,81.5C 279.696,81.5652 281.696,82.2319 283.5,83.5C 283.746,84.7732 283.746,85.9399 283.5,87C 285.509,86.4064 287.509,86.5731 289.5,87.5C 291.503,89.1331 292.836,91.1331 293.5,93.5C 296.731,95.4581 300.064,97.4581 303.5,99.5C 304.95,100.85 305.617,102.516 305.5,104.5C 306.833,104.5 308.167,104.5 309.5,104.5C 309.833,104.5 310.167,104.5 310.5,104.5C 310.5,106.5 311.5,107.5 313.5,107.5C 313.754,110.014 314.587,112.348 316,114.5C 317.011,115.337 318.178,115.67 319.5,115.5C 323.911,120.648 327.578,126.314 330.5,132.5C 331.395,136.13 332.728,139.63 334.5,143C 333.32,144.045 332.32,145.545 331.5,147.5C 334.942,147.945 337.609,149.612 339.5,152.5C 339.643,155.385 340.643,157.718 342.5,159.5C 342.294,162.495 342.96,165.162 344.5,167.5C 344.676,170.727 345.343,173.727 346.5,176.5C 347.473,178.948 347.806,181.615 347.5,184.5C 348.767,197.164 348.767,209.83 347.5,222.5C 345.926,227.944 344.926,233.611 344.5,239.5C 341.624,245.119 339.458,251.119 338,257.5C 337.119,259.274 335.953,259.94 334.5,259.5C 335.309,261.071 335.643,262.738 335.5,264.5C 334.5,264.5 333.5,264.5 332.5,264.5C 330.515,269.809 328.515,275.142 326.5,280.5C 324.533,280.739 322.699,280.406 321,279.5C 320.689,280.742 321.189,281.742 322.5,282.5C 321.6,286.983 320.267,287.317 318.5,283.5C 318.167,284.333 317.833,285.167 317.5,286C 317.943,287.825 318.277,289.658 318.5,291.5C 314.2,291.815 312.533,294.149 313.5,298.5C 310.898,300.068 308.231,301.735 305.5,303.5C 304.534,305.396 304.201,307.396 304.5,309.5C 303.167,310.5 301.833,311.5 300.5,312.5C 300.179,310.952 299.179,310.285 297.5,310.5C 297.5,311.833 297.5,313.167 297.5,314.5C 296.5,314.5 295.5,314.5 294.5,314.5C 294.5,315.5 294.5,316.5 294.5,317.5C 294.158,318.338 293.492,318.672 292.5,318.5C 290.965,317.212 289.299,317.212 287.5,318.5C 287.709,319.086 288.043,319.586 288.5,320C 287.216,320.684 286.049,320.517 285,319.5C 284.383,320.449 284.549,321.282 285.5,322C 284.049,321.737 282.716,321.904 281.5,322.5C 281.833,323.167 282.167,323.833 282.5,324.5C 280.994,325.747 279.494,325.747 278,324.5C 277.506,326.134 277.34,327.801 277.5,329.5C 275.112,331.361 272.446,332.694 269.5,333.5C 264.977,333.104 261.643,334.771 259.5,338.5C 258.833,338.5 258.167,338.5 257.5,338.5C 254.607,338.031 252.607,339.031 251.5,341.5C 251.167,341.5 250.833,341.5 250.5,341.5C 241.051,343.081 231.717,344.914 222.5,347C 212.2,348.181 201.867,348.681 191.5,348.5C 189.167,348.5 186.833,348.5 184.5,348.5C 182.162,346.96 179.495,346.294 176.5,346.5C 175.833,346.5 175.167,346.5 174.5,346.5C 171.146,344.742 167.479,343.742 163.5,343.5C 160.572,343.435 157.905,342.768 155.5,341.5C 154.365,339.787 152.698,339.12 150.5,339.5C 150.196,338.85 149.863,338.183 149.5,337.5C 146.302,336.833 143.635,335.333 141.5,333C 140.207,332.51 138.873,332.343 137.5,332.5C 137.586,331.504 137.252,330.671 136.5,330C 131.257,329.252 128.257,326.419 127.5,321.5C 124.005,324.197 121.505,323.197 120,318.5C 117.619,320.766 115.785,320.099 114.5,316.5C 115.09,315.201 116.09,314.368 117.5,314C 116.66,312.334 117.16,312.167 119,313.5C 120.074,312.382 121.24,311.382 122.5,310.5C 122.291,309.914 121.957,309.414 121.5,309C 117.899,310.492 114.232,312.326 110.5,314.5C 108.862,313.295 108.529,311.962 109.5,310.5C 107.045,309.645 104.712,308.645 102.5,307.5C 101.833,307.5 101.167,307.5 100.5,307.5C 100.5,305.5 99.5,304.5 97.5,304.5C 96.6618,304.158 96.3284,303.492 96.5,302.5C 94.785,300.118 92.785,298.118 90.5,296.5C 90.573,294.973 89.9063,293.973 88.5,293.5C 88.1436,291.81 87.1436,290.81 85.5,290.5C 84.3263,289.486 83.6596,288.153 83.5,286.5C 82.9744,284.77 81.9744,283.436 80.5,282.5C 80.573,280.973 79.9063,279.973 78.5,279.5C 77.6618,279.158 77.3284,278.492 77.5,277.5C 77.573,275.973 76.9063,274.973 75.5,274.5C 75.0075,272.181 74.0075,270.181 72.5,268.5C 72.1667,267.167 71.8333,265.833 71.5,264.5C 70.9751,260.467 69.6418,256.8 67.5,253.5C 67.2451,251.033 66.2451,249.033 64.5,247.5C 63.64,244.368 62.64,241.368 61.5,238.5C 60.4232,232.218 59.7565,225.884 59.5,219.5C 58.3062,207.841 58.3062,196.174 59.5,184.5C 59.8869,179.126 60.5535,173.793 61.5,168.5C 62.913,165.781 63.5797,162.781 63.5,159.5C 65.256,158.448 65.9227,156.781 65.5,154.5C 67.2132,153.365 67.8799,151.698 67.5,149.5C 68.6737,148.486 69.3404,147.153 69.5,145.5C 71.2413,143.605 72.2413,141.272 72.5,138.5C 74.0075,136.819 75.0075,134.819 75.5,132.5C 76.9063,132.027 77.573,131.027 77.5,129.5C 77.3284,128.508 77.6618,127.842 78.5,127.5C 79.9063,127.027 80.573,126.027 80.5,124.5C 81.9744,123.564 82.9744,122.23 83.5,120.5C 83.6596,118.847 84.3263,117.514 85.5,116.5C 87.1436,116.19 88.1436,115.19 88.5,113.5C 89.9063,113.027 90.573,112.027 90.5,110.5C 92.785,108.882 94.785,106.882 96.5,104.5C 100.5,101.167 104.167,97.5 107.5,93.5C 107.833,92.5 108.5,91.8333 109.5,91.5C 111.404,91.2624 112.738,90.2624 113.5,88.5C 115.404,88.2624 116.738,87.2624 117.5,85.5C 118.833,85.5 119.5,84.8333 119.5,83.5C 119.842,82.6618 120.508,82.3284 121.5,82.5C 123.027,82.573 124.027,81.9063 124.5,80.5C 124.842,79.6618 125.508,79.3284 126.5,79.5C 128.027,79.573 129.027,78.9063 129.5,77.5C 131.027,77.573 132.027,76.9063 132.5,75.5C 133.209,74.596 134.209,74.2627 135.5,74.5C 137.027,74.573 138.027,73.9063 138.5,72.5C 140.649,71.2638 142.982,70.2638 145.5,69.5C 150.968,69.7905 155.635,68.1239 159.5,64.5C 163.428,65.0242 166.761,64.0242 169.5,61.5C 169.833,61.5 170.167,61.5 170.5,61.5C 174.215,61.577 177.881,61.2436 181.5,60.5C 196.497,59.2775 211.497,59.2775 226.5,60.5 Z M 218.5,73.5 C 221.627,74.5808 224.96,75.2474 228.5,75.5C 228.833,75.5 229.167,75.5 229.5,75.5C 231.848,77.0972 234.514,78.0972 237.5,78.5C 240.457,79.8234 243.457,81.1568 246.5,82.5C 247.391,83.1098 248.391,83.4431 249.5,83.5C 249.973,84.9063 250.973,85.573 252.5,85.5C 253.209,86.404 254.209,86.7373 255.5,86.5C 255.5,87.8333 256.167,88.5 257.5,88.5C 257.833,88.5 258.167,88.5 258.5,88.5C 258.5,89.8333 259.167,90.5 260.5,90.5C 260.842,91.3382 261.508,91.6716 262.5,91.5C 263.262,93.2624 264.596,94.2624 266.5,94.5C 266.833,95.5 267.5,96.1667 268.5,96.5C 269.833,98.5 271.5,100.167 273.5,101.5C 274.728,102.306 275.728,103.306 276.5,104.5C 278.215,106.882 280.215,108.882 282.5,110.5C 282.328,111.492 282.662,112.158 283.5,112.5C 285.14,116.152 287.474,119.152 290.5,121.5C 290.794,124.754 292.127,127.421 294.5,129.5C 295.929,135.129 297.929,140.463 300.5,145.5C 306.986,169.768 305.319,193.434 295.5,216.5C 293.992,218.181 292.992,220.181 292.5,222.5C 290.11,225.566 288.11,228.9 286.5,232.5C 285.094,232.973 284.427,233.973 284.5,235.5C 283.094,235.973 282.427,236.973 282.5,238.5C 280.736,239.326 279.402,240.659 278.5,242.5C 277.5,242.833 276.833,243.5 276.5,244.5C 275.167,245.167 274.167,246.167 273.5,247.5C 272.167,248.167 271.167,249.167 270.5,250.5C 269.5,250.833 268.833,251.5 268.5,252.5C 266.596,252.738 265.262,253.738 264.5,255.5C 262.77,256.026 261.436,257.026 260.5,258.5C 258.973,258.427 257.973,259.094 257.5,260.5C 256.508,260.328 255.842,260.662 255.5,261.5C 253.973,261.427 252.973,262.094 252.5,263.5C 251.391,263.557 250.391,263.89 249.5,264.5C 247.973,264.427 246.973,265.094 246.5,266.5C 243.982,267.264 241.649,268.264 239.5,269.5C 239.167,269.5 238.833,269.5 238.5,269.5C 236.847,269.66 235.514,270.326 234.5,271.5C 232.901,271.232 231.568,271.566 230.5,272.5C 227.848,272.41 225.515,273.076 223.5,274.5C 218.833,274.833 214.167,275.167 209.5,275.5C 198.003,276.026 186.669,275.026 175.5,272.5C 170.582,270.522 165.582,268.522 160.5,266.5C 160.167,266.5 159.833,266.5 159.5,266.5C 156.235,264.528 152.902,262.528 149.5,260.5C 146.833,258.833 144.167,257.167 141.5,255.5C 141.19,253.856 140.19,252.856 138.5,252.5C 134.526,248.862 130.526,245.195 126.5,241.5C 126.573,239.973 125.906,238.973 124.5,238.5C 124.167,238.5 123.833,238.5 123.5,238.5C 118.426,230.754 113.76,222.754 109.5,214.5C 109.5,214.167 109.5,213.833 109.5,213.5C 109.065,210.843 108.065,208.509 106.5,206.5C 106.741,204.102 106.074,202.102 104.5,200.5C 103.994,194.793 103.161,189.126 102,183.5C 101.501,177.509 101.334,171.509 101.5,165.5C 102.531,163.039 103.198,160.373 103.5,157.5C 103.911,153.779 104.578,150.112 105.5,146.5C 106.458,144.698 107.125,142.698 107.5,140.5C 108.537,139.07 109.204,137.403 109.5,135.5C 110.892,132.993 111.892,130.327 112.5,127.5C 114.316,125.882 115.649,123.882 116.5,121.5C 120.084,115.908 124.084,110.574 128.5,105.5C 130.5,104.167 132.167,102.5 133.5,100.5C 134.167,100.5 134.5,100.167 134.5,99.5C 141.527,93.6622 148.86,88.3289 156.5,83.5C 158.403,83.2041 160.07,82.5375 161.5,81.5C 164.397,80.871 167.064,79.871 169.5,78.5C 170.609,78.4431 171.609,78.1098 172.5,77.5C 177.875,75.9451 183.208,74.6118 188.5,73.5C 198.5,72.1667 208.5,72.1667 218.5,73.5 Z"/></g>
<g><path style="opacity:0.996" fill="#672635" d="M 237.5,78.5 C 241.288,78.309 244.288,79.6423 246.5,82.5C 243.457,81.1568 240.457,79.8234 237.5,78.5 Z"/></g>
<g><path style="opacity:1" fill="#6b2031" d="M 169.5,78.5 C 167.064,79.871 164.397,80.871 161.5,81.5C 163.391,78.8283 166.058,77.8283 169.5,78.5 Z"/></g>
<g><path style="opacity:0.988" fill="#792235" d="M 229.5,75.5 C 232.811,75.3072 235.478,76.3072 237.5,78.5C 234.514,78.0972 231.848,77.0972 229.5,75.5 Z"/></g>
<g><path style="opacity:1" fill="#88233b" d="M 188.5,73.5 C 183.208,74.6118 177.875,75.9451 172.5,77.5C 172.5,76.5 172.5,75.5 172.5,74.5C 177.833,74.1667 183.167,73.8333 188.5,73.5 Z"/></g>
<g><path style="opacity:1" fill="#7e2138" d="M 218.5,73.5 C 221.187,73.3359 223.854,73.5026 226.5,74C 227.416,74.2784 228.082,74.7784 228.5,75.5C 224.96,75.2474 221.627,74.5808 218.5,73.5 Z"/></g>
<g><path style="opacity:0.247" fill="#291c21" d="M 249.5,83.5 C 251.027,83.427 252.027,84.0937 252.5,85.5C 250.973,85.573 249.973,84.9063 249.5,83.5 Z"/></g>
<g><path style="opacity:0.259" fill="#231a1d" d="M 119.5,83.5 C 119.5,84.8333 118.833,85.5 117.5,85.5C 117.833,84.5 118.5,83.8333 119.5,83.5 Z"/></g>
<g><path style="opacity:1" fill="#a01b3c" d="M 277.5,77.5 C 285.49,82.5001 293.157,88.0001 300.5,94C 304.335,96.871 307.335,100.371 309.5,104.5C 308.167,104.5 306.833,104.5 305.5,104.5C 305.617,102.516 304.95,100.85 303.5,99.5C 300.064,97.4581 296.731,95.4581 293.5,93.5C 292.836,91.1331 291.503,89.1331 289.5,87.5C 287.509,86.5731 285.509,86.4064 283.5,87C 283.746,85.9399 283.746,84.7732 283.5,83.5C 281.696,82.2319 279.696,81.5652 277.5,81.5C 277.5,80.1667 277.5,78.8333 277.5,77.5 Z"/></g>
<g><path style="opacity:1" fill="#a21a3b" d="M 156.5,83.5 C 148.86,88.3289 141.527,93.6622 134.5,99.5C 134.579,98.0695 134.246,96.7362 133.5,95.5C 137.27,95.0056 139.77,93.0056 141,89.5C 141.333,89.8333 141.667,90.1667 142,90.5C 142.402,89.1279 142.902,87.7946 143.5,86.5C 145.637,85.9202 147.47,84.9202 149,83.5C 151.667,83.8345 154.167,83.8345 156.5,83.5 Z"/></g>
<g><path style="opacity:0.976" fill="#4e212c" d="M 117.5,85.5 C 116.738,87.2624 115.404,88.2624 113.5,88.5C 114.262,86.7376 115.596,85.7376 117.5,85.5 Z"/></g>
<g><path style="opacity:0.031" fill="#080607" d="M 255.5,86.5 C 256.5,86.8333 257.167,87.5 257.5,88.5C 256.167,88.5 255.5,87.8333 255.5,86.5 Z"/></g>
<g><path style="opacity:1" fill="#7b283d" d="M 213.5,87.5 C 216.373,87.8023 219.039,88.469 221.5,89.5C 218.447,89.8893 215.78,89.2227 213.5,87.5 Z"/></g>
<g><path style="opacity:0.094" fill="#241a1d" d="M 113.5,88.5 C 112.738,90.2624 111.404,91.2624 109.5,91.5C 110.262,89.7376 111.596,88.7376 113.5,88.5 Z"/></g>
<g><path style="opacity:1" fill="#79293d" d="M 188.5,88.5 C 185.916,90.4725 182.916,91.4725 179.5,91.5C 182.145,89.6896 185.145,88.6896 188.5,88.5 Z"/></g>
<g><path style="opacity:1" fill="#a71b3f" d="M 213.5,87.5 C 215.78,89.2227 218.447,89.8893 221.5,89.5C 226.324,90.2137 230.658,91.8803 234.5,94.5C 227.596,93.3706 220.763,91.7039 214,89.5C 213.333,93.5 212.667,93.5 212,89.5C 211.781,90.938 211.281,92.2713 210.5,93.5C 209.269,92.3493 209.269,91.1827 210.5,90C 203.563,88.7122 196.563,88.2122 189.5,88.5C 193.728,86.9745 198.228,86.3078 203,86.5C 206.583,86.5371 210.083,86.8705 213.5,87.5 Z"/></g>
<g><path style="opacity:0.008" fill="#130f11" d="M 258.5,88.5 C 259.5,88.8333 260.167,89.5 260.5,90.5C 259.167,90.5 258.5,89.8333 258.5,88.5 Z"/></g>
<g><path style="opacity:1" fill="#c7003d" d="M 188.5,88.5 C 188.833,88.5 189.167,88.5 189.5,88.5C 196.563,88.2122 203.563,88.7122 210.5,90C 209.269,91.1827 209.269,92.3493 210.5,93.5C 211.281,92.2713 211.781,90.938 212,89.5C 212.667,93.5 213.333,93.5 214,89.5C 220.763,91.7039 227.596,93.3706 234.5,94.5C 234.721,95.7348 235.388,96.7348 236.5,97.5C 239.211,98.8554 241.878,100.189 244.5,101.5C 245.167,101.833 245.833,102.167 246.5,102.5C 246.525,105.179 247.858,106.512 250.5,106.5C 252.262,107.262 253.262,108.596 253.5,110.5C 253.731,113.063 255.065,114.73 257.5,115.5C 257.427,117.027 258.094,118.027 259.5,118.5C 259.427,120.027 260.094,121.027 261.5,121.5C 261.5,122.833 261.5,124.167 261.5,125.5C 261.34,127.199 261.506,128.866 262,130.5C 264.178,133.523 265.845,136.856 267,140.5C 267.5,148.827 267.666,157.16 267.5,165.5C 267.5,166.5 267.5,167.5 267.5,168.5C 266.503,168.47 265.836,168.97 265.5,170C 263.967,174.232 262.3,178.398 260.5,182.5C 259.549,181.674 258.549,181.508 257.5,182C 258.337,183.011 258.67,184.178 258.5,185.5C 256.058,185.119 255.391,185.786 256.5,187.5C 255.273,188.59 254.44,189.924 254,191.5C 253.282,190.549 252.449,190.383 251.5,191C 252.731,192.183 252.731,193.349 251.5,194.5C 249.983,193.089 248.649,193.256 247.5,195C 249.107,196.049 249.773,197.549 249.5,199.5C 249.027,200.906 248.027,201.573 246.5,201.5C 245.749,200.427 244.749,200.26 243.5,201C 243.833,201.333 244.167,201.667 244.5,202C 241.376,203.952 238.376,206.119 235.5,208.5C 233.556,209.189 231.556,209.689 229.5,210C 228.177,210.816 227.511,211.983 227.5,213.5C 218.876,214.932 210.209,215.932 201.5,216.5C 195.068,216.588 188.735,215.921 182.5,214.5C 181.833,214.5 181.167,214.5 180.5,214.5C 180.167,213.5 179.5,212.833 178.5,212.5C 175.352,209.755 171.685,207.755 167.5,206.5C 166.833,206.5 166.167,206.5 165.5,206.5C 164.508,206.672 163.842,206.338 163.5,205.5C 163.512,202.858 162.179,201.525 159.5,201.5C 157.5,198.833 155.167,196.5 152.5,194.5C 152.5,193.167 151.833,192.5 150.5,192.5C 149.662,192.158 149.328,191.492 149.5,190.5C 149.573,188.973 148.906,187.973 147.5,187.5C 147.573,185.973 146.906,184.973 145.5,184.5C 143.376,180.457 142.042,176.123 141.5,171.5C 140.896,165.2 140.563,158.867 140.5,152.5C 140.673,143.048 141.673,133.715 143.5,124.5C 144.674,123.486 145.34,122.153 145.5,120.5C 148.323,117.525 150.656,114.192 152.5,110.5C 152.328,109.508 152.662,108.842 153.5,108.5C 155.5,108.5 156.5,107.5 156.5,105.5C 158.027,105.573 159.027,104.906 159.5,103.5C 159.833,102.5 160.5,101.833 161.5,101.5C 163.795,100.864 165.461,99.5311 166.5,97.5C 166.833,97.5 167.167,97.5 167.5,97.5C 169.027,97.573 170.027,96.9063 170.5,95.5C 173.802,95.0884 176.469,93.755 178.5,91.5C 178.833,91.5 179.167,91.5 179.5,91.5C 182.916,91.4725 185.916,90.4725 188.5,88.5 Z"/></g>
<g><path style="opacity:1" fill="#672736" d="M 262.5,91.5 C 264.632,91.5544 265.965,92.5544 266.5,94.5C 264.596,94.2624 263.262,93.2624 262.5,91.5 Z"/></g>
<g><path style="opacity:0.98" fill="#6b2637" d="M 178.5,91.5 C 176.469,93.755 173.802,95.0884 170.5,95.5C 172.789,93.6127 175.455,92.2794 178.5,91.5 Z"/></g>
<g><path style="opacity:0.557" fill="#42242d" d="M 107.5,93.5 C 104.167,97.5 100.5,101.167 96.5,104.5C 99.1667,99.8333 102.833,96.1667 107.5,93.5 Z"/></g>
<g><path style="opacity:0.882" fill="#4b202c" d="M 170.5,95.5 C 170.027,96.9063 169.027,97.573 167.5,97.5C 167.973,96.0937 168.973,95.427 170.5,95.5 Z"/></g>
<g><path style="opacity:0.996" fill="#7d2138" d="M 234.5,94.5 C 238.41,96.0875 241.743,98.4208 244.5,101.5C 241.878,100.189 239.211,98.8554 236.5,97.5C 235.388,96.7348 234.721,95.7348 234.5,94.5 Z"/></g>
<g><path style="opacity:0.157" fill="#1b1417" d="M 268.5,96.5 C 271.167,97.1667 272.833,98.8333 273.5,101.5C 271.5,100.167 269.833,98.5 268.5,96.5 Z"/></g>
<g><path style="opacity:0.114" fill="#291a1e" d="M 166.5,97.5 C 165.461,99.5311 163.795,100.864 161.5,101.5C 162.579,99.457 164.246,98.1237 166.5,97.5 Z"/></g>
<g><path style="opacity:1" fill="#911c38" d="M 133.5,100.5 C 132.167,102.5 130.5,104.167 128.5,105.5C 127.883,101.011 129.55,99.344 133.5,100.5 Z"/></g>
<g><path style="opacity:0.122" fill="#141112" d="M 159.5,103.5 C 159.027,104.906 158.027,105.573 156.5,105.5C 156.973,104.094 157.973,103.427 159.5,103.5 Z"/></g>
<g><path style="opacity:0.102" fill="#171214" d="M 276.5,104.5 C 279.478,105.478 281.478,107.478 282.5,110.5C 280.215,108.882 278.215,106.882 276.5,104.5 Z"/></g>
<g><path style="opacity:1" fill="#772137" d="M 246.5,102.5 C 248.167,103.5 249.5,104.833 250.5,106.5C 247.858,106.512 246.525,105.179 246.5,102.5 Z"/></g>
<g><path style="opacity:0.941" fill="#6a2839" d="M 310.5,104.5 C 311.833,105.167 312.833,106.167 313.5,107.5C 311.5,107.5 310.5,106.5 310.5,104.5 Z"/></g>
<g><path style="opacity:0.11" fill="#24181c" d="M 96.5,104.5 C 94.785,106.882 92.785,108.882 90.5,110.5C 91.5222,107.478 93.5222,105.478 96.5,104.5 Z"/></g>
<g><path style="opacity:0.102" fill="#120f10" d="M 156.5,105.5 C 156.5,107.5 155.5,108.5 153.5,108.5C 154.167,107.167 155.167,106.167 156.5,105.5 Z"/></g>
<g><path style="opacity:0.129" fill="#120d10" d="M 90.5,110.5 C 90.573,112.027 89.9063,113.027 88.5,113.5C 88.427,111.973 89.0937,110.973 90.5,110.5 Z"/></g>
<g><path style="opacity:1" fill="#981d3a" d="M 128.5,105.5 C 124.084,110.574 120.084,115.908 116.5,121.5C 116.643,119.738 116.309,118.071 115.5,116.5C 116.274,115.289 117.107,115.289 118,116.5C 118.72,114.888 118.554,113.388 117.5,112C 118.935,112.311 120.268,112.145 121.5,111.5C 122.731,110.349 122.731,109.183 121.5,108C 122.167,106.667 123.167,105.667 124.5,105C 123.294,103.982 123.627,103.482 125.5,103.5C 126.739,103.942 127.739,104.609 128.5,105.5 Z"/></g>
<g><path style="opacity:0.122" fill="#1c1517" d="M 152.5,110.5 C 150.656,114.192 148.323,117.525 145.5,120.5C 146.851,116.458 149.185,113.125 152.5,110.5 Z"/></g>
<g><path style="opacity:1" fill="#7e2039" d="M 253.5,110.5 C 255.587,111.585 256.92,113.251 257.5,115.5C 255.065,114.73 253.731,113.063 253.5,110.5 Z"/></g>
<g><path style="opacity:1" fill="#961b3d" d="M 313.5,107.5 C 315.878,109.878 317.878,112.545 319.5,115.5C 318.178,115.67 317.011,115.337 316,114.5C 314.587,112.348 313.754,110.014 313.5,107.5 Z"/></g>
<g><path style="opacity:0.478" fill="#351f26" d="M 88.5,113.5 C 88.1436,115.19 87.1436,116.19 85.5,116.5C 85.8564,114.81 86.8564,113.81 88.5,113.5 Z"/></g>
<g><path style="opacity:0.933" fill="#612032" d="M 257.5,115.5 C 258.906,115.973 259.573,116.973 259.5,118.5C 258.094,118.027 257.427,117.027 257.5,115.5 Z"/></g>
<g><path style="opacity:0.035" fill="#201417" d="M 283.5,112.5 C 285.027,112.427 286.027,113.094 286.5,114.5C 287.833,116.833 289.167,119.167 290.5,121.5C 287.474,119.152 285.14,116.152 283.5,112.5 Z"/></g>
<g><path style="opacity:0.714" fill="#562735" d="M 259.5,118.5 C 260.906,118.973 261.573,119.973 261.5,121.5C 260.094,121.027 259.427,120.027 259.5,118.5 Z"/></g>
<g><path style="opacity:0.035" fill="#151012" d="M 83.5,120.5 C 82.9744,122.23 81.9744,123.564 80.5,124.5C 80.5544,122.368 81.5544,121.035 83.5,120.5 Z"/></g>
<g><path style="opacity:0.11" fill="#0e0c0c" d="M 145.5,120.5 C 145.34,122.153 144.674,123.486 143.5,124.5C 143.229,122.62 143.896,121.287 145.5,120.5 Z"/></g>
<g><path style="opacity:0.894" fill="#6b2033" d="M 116.5,121.5 C 115.649,123.882 114.316,125.882 112.5,127.5C 112.392,125.486 113.058,123.82 114.5,122.5C 114.842,121.662 115.508,121.328 116.5,121.5 Z"/></g>
<g><path style="opacity:0.961" fill="#73273a" d="M 261.5,121.5 C 262.492,123.456 263.492,125.456 264.5,127.5C 263.5,126.833 262.5,126.167 261.5,125.5C 261.5,124.167 261.5,122.833 261.5,121.5 Z"/></g>
<g><path style="opacity:0.041" fill="#1a1315" d="M 290.5,121.5 C 292.362,123.891 293.696,126.558 294.5,129.5C 292.127,127.421 290.794,124.754 290.5,121.5 Z"/></g>
<g><path style="opacity:0.439" fill="#342126" d="M 80.5,124.5 C 80.573,126.027 79.9063,127.027 78.5,127.5C 78.427,125.973 79.0937,124.973 80.5,124.5 Z"/></g>
<g><path style="opacity:1" fill="#8c1b38" d="M 261.5,125.5 C 262.5,126.167 263.5,126.833 264.5,127.5C 269.218,139.989 270.218,152.656 267.5,165.5C 267.666,157.16 267.5,148.827 267,140.5C 265.845,136.856 264.178,133.523 262,130.5C 261.506,128.866 261.34,127.199 261.5,125.5 Z"/></g>
<g><path style="opacity:1" fill="#a51841" d="M 286.5,114.5 C 292.773,120.027 296.773,127.027 298.5,135.5C 297.167,133.5 295.833,131.5 294.5,129.5C 293.696,126.558 292.362,123.891 290.5,121.5C 289.167,119.167 287.833,116.833 286.5,114.5 Z"/></g>
<g><path style="opacity:0.267" fill="#20181b" d="M 77.5,129.5 C 77.573,131.027 76.9063,132.027 75.5,132.5C 75.427,130.973 76.0937,129.973 77.5,129.5 Z"/></g>
<g><path style="opacity:0.033" fill="#171012" d="M 294.5,129.5 C 295.833,131.5 297.167,133.5 298.5,135.5C 298.5,135.833 298.5,136.167 298.5,136.5C 299.929,139.308 300.595,142.308 300.5,145.5C 297.929,140.463 295.929,135.129 294.5,129.5 Z"/></g>
<g><path style="opacity:0.042" fill="#120d0f" d="M 75.5,132.5 C 75.0075,134.819 74.0075,136.819 72.5,138.5C 72.461,135.911 73.461,133.911 75.5,132.5 Z"/></g>
<g><path style="opacity:0.906" fill="#541d2b" d="M 109.5,135.5 C 109.204,137.403 108.537,139.07 107.5,140.5C 107.12,138.302 107.787,136.635 109.5,135.5 Z"/></g>
<g><path style="opacity:1" fill="#a9153c" d="M 114.5,122.5 C 113.058,123.82 112.392,125.486 112.5,127.5C 111.892,130.327 110.892,132.993 109.5,135.5C 107.787,136.635 107.12,138.302 107.5,140.5C 105.72,141.99 105.054,143.99 105.5,146.5C 104.578,150.112 103.911,153.779 103.5,157.5C 102.833,158.167 102.167,158.833 101.5,159.5C 101.753,150.101 104.087,141.267 108.5,133C 108.355,132.228 108.022,131.561 107.5,131C 108.308,130.692 108.975,130.192 109.5,129.5C 108.359,128.575 108.359,127.741 109.5,127C 108.5,126.667 107.5,126.333 106.5,126C 107.46,124.581 108.293,123.081 109,121.5C 109.471,123.246 110.138,124.913 111,126.5C 111.49,125.207 111.657,123.873 111.5,122.5C 112.5,122.5 113.5,122.5 114.5,122.5 Z"/></g>
<g><path style="opacity:0.054" fill="#120c0d" d="M 141.5,129.5 C 140.972,133.212 140.138,136.879 139,140.5C 138.334,150.519 138.501,160.519 139.5,170.5C 135.719,158.693 135.553,146.693 139,134.5C 139.757,132.685 140.59,131.019 141.5,129.5 Z"/></g>
<g><path style="opacity:0.918" fill="#5c2332" d="M 107.5,140.5 C 107.125,142.698 106.458,144.698 105.5,146.5C 105.054,143.99 105.72,141.99 107.5,140.5 Z"/></g>
<g><path style="opacity:0.984" fill="#431e26" d="M 72.5,138.5 C 72.2413,141.272 71.2413,143.605 69.5,145.5C 69.5516,142.654 70.5516,140.32 72.5,138.5 Z"/></g>
<g><path style="opacity:0.686" fill="#341f25" d="M 69.5,145.5 C 69.3404,147.153 68.6737,148.486 67.5,149.5C 67.2291,147.62 67.8958,146.287 69.5,145.5 Z"/></g>
<g><path style="opacity:1" fill="#a5183d" d="M 330.5,132.5 C 332.451,134.48 333.951,136.813 335,139.5C 337.089,143.668 338.589,148.002 339.5,152.5C 337.609,149.612 334.942,147.945 331.5,147.5C 332.32,145.545 333.32,144.045 334.5,143C 332.728,139.63 331.395,136.13 330.5,132.5 Z"/></g>
<g><path style="opacity:0.082" fill="#161012" d="M 67.5,149.5 C 67.8799,151.698 67.2132,153.365 65.5,154.5C 65.7959,152.597 66.4625,150.93 67.5,149.5 Z"/></g>
<g><path style="opacity:1" fill="#9e193c" d="M 143.5,124.5 C 141.673,133.715 140.673,143.048 140.5,152.5C 140.563,158.867 140.896,165.2 141.5,171.5C 140.833,171.167 140.167,170.833 139.5,170.5C 138.501,160.519 138.334,150.519 139,140.5C 140.138,136.879 140.972,133.212 141.5,129.5C 141.402,127.447 142.069,125.78 143.5,124.5 Z"/></g>
<g><path style="opacity:0.686" fill="#3a2027" d="M 65.5,154.5 C 65.9227,156.781 65.256,158.448 63.5,159.5C 63.7959,157.597 64.4625,155.93 65.5,154.5 Z"/></g>
<g><path style="opacity:0.976" fill="#81253c" d="M 339.5,152.5 C 341.241,154.395 342.241,156.728 342.5,159.5C 340.643,157.718 339.643,155.385 339.5,152.5 Z"/></g>
<g><path style="opacity:0.675" fill="#522835" d="M 103.5,157.5 C 103.198,160.373 102.531,163.039 101.5,165.5C 101.5,163.5 101.5,161.5 101.5,159.5C 102.167,158.833 102.833,158.167 103.5,157.5 Z"/></g>
<g><path style="opacity:0.044" fill="#050404" d="M 63.5,159.5 C 63.5797,162.781 62.913,165.781 61.5,168.5C 61.4203,165.219 62.087,162.219 63.5,159.5 Z"/></g>
<g><path style="opacity:0.067" fill="#0e090a" d="M 300.5,145.5 C 301.117,145.611 301.617,145.944 302,146.5C 305.988,162.065 306.488,177.732 303.5,193.5C 302.195,201.762 299.528,209.428 295.5,216.5C 305.319,193.434 306.986,169.768 300.5,145.5 Z"/></g>
<g><path style="opacity:0.933" fill="#92193b" d="M 101.5,159.5 C 101.5,161.5 101.5,163.5 101.5,165.5C 101.334,171.509 101.501,177.509 102,183.5C 103.161,189.126 103.994,194.793 104.5,200.5C 103.186,197.723 102.186,194.723 101.5,191.5C 100.177,180.674 100.177,170.007 101.5,159.5 Z"/></g>
<g><path style="opacity:0.925" fill="#762036" d="M 342.5,159.5 C 343.768,161.905 344.435,164.572 344.5,167.5C 342.96,165.162 342.294,162.495 342.5,159.5 Z"/></g>
<g><path style="opacity:1" fill="#aa1540" d="M 298.5,136.5 C 300.455,138.992 302.122,141.659 303.5,144.5C 306.329,159.359 307.163,174.359 306,189.5C 305.392,191.066 304.558,192.4 303.5,193.5C 306.488,177.732 305.988,162.065 302,146.5C 301.617,145.944 301.117,145.611 300.5,145.5C 300.595,142.308 299.929,139.308 298.5,136.5 Z"/></g>
<g><path style="opacity:0.924" fill="#78213a" d="M 344.5,167.5 C 346.118,170.171 346.785,173.171 346.5,176.5C 345.343,173.727 344.676,170.727 344.5,167.5 Z"/></g>
<g><path style="opacity:0.053" fill="#0b0607" d="M 61.5,168.5 C 60.5535,173.793 59.8869,179.126 59.5,184.5C 59.1667,184.5 58.8333,184.5 58.5,184.5C 58.2274,178.784 59.2274,173.451 61.5,168.5 Z"/></g>
<g><path style="opacity:0.042" fill="#0c090a" d="M 139.5,170.5 C 140.167,170.833 140.833,171.167 141.5,171.5C 142.042,176.123 143.376,180.457 145.5,184.5C 142.17,180.544 140.17,175.877 139.5,170.5 Z"/></g>
<g><path style="opacity:0.02" fill="#191215" d="M 145.5,184.5 C 146.906,184.973 147.573,185.973 147.5,187.5C 146.094,187.027 145.427,186.027 145.5,184.5 Z"/></g>
<g><path style="opacity:1" fill="#951d3a" d="M 267.5,168.5 C 264.825,180.824 258.825,191.157 249.5,199.5C 249.773,197.549 249.107,196.049 247.5,195C 248.649,193.256 249.983,193.089 251.5,194.5C 252.731,193.349 252.731,192.183 251.5,191C 252.449,190.383 253.282,190.549 254,191.5C 254.44,189.924 255.273,188.59 256.5,187.5C 255.391,185.786 256.058,185.119 258.5,185.5C 258.67,184.178 258.337,183.011 257.5,182C 258.549,181.508 259.549,181.674 260.5,182.5C 262.3,178.398 263.967,174.232 265.5,170C 265.836,168.97 266.503,168.47 267.5,168.5 Z"/></g>
<g><path style="opacity:0.016" fill="#140f12" d="M 147.5,187.5 C 148.906,187.973 149.573,188.973 149.5,190.5C 148.094,190.027 147.427,189.027 147.5,187.5 Z"/></g>
<g><path style="opacity:0.047" fill="#090506" d="M 58.5,184.5 C 57.488,195.148 57.3214,205.814 58,216.5C 58.2321,217.737 58.7321,218.737 59.5,219.5C 59.7565,225.884 60.4232,232.218 61.5,238.5C 60.7784,238.082 60.2784,237.416 60,236.5C 56.7908,220.981 55.7908,205.314 57,189.5C 57.1981,187.618 57.6981,185.952 58.5,184.5 Z"/></g>
<g><path style="opacity:0.196" fill="#1b1519" d="M 150.5,192.5 C 151.833,192.5 152.5,193.167 152.5,194.5C 151.5,194.167 150.833,193.5 150.5,192.5 Z"/></g>
<g><path style="opacity:0.004" fill="#181315" d="M 152.5,194.5 C 155.167,196.5 157.5,198.833 159.5,201.5C 156.167,200.167 153.833,197.833 152.5,194.5 Z"/></g>
<g><path style="opacity:0.929" fill="#972745" d="M 58.5,184.5 C 58.8333,184.5 59.1667,184.5 59.5,184.5C 58.3062,196.174 58.3062,207.841 59.5,219.5C 58.7321,218.737 58.2321,217.737 58,216.5C 57.3214,205.814 57.488,195.148 58.5,184.5 Z"/></g>
<g><path style="opacity:0.855" fill="#7b253c" d="M 347.5,184.5 C 349.049,190.587 349.716,196.92 349.5,203.5C 349.716,210.08 349.049,216.413 347.5,222.5C 348.767,209.83 348.767,197.164 347.5,184.5 Z"/></g>
<g><path style="opacity:1" fill="#64202f" d="M 159.5,201.5 C 162.179,201.525 163.512,202.858 163.5,205.5C 161.833,204.5 160.5,203.167 159.5,201.5 Z"/></g>
<g><path style="opacity:1" fill="#8e1f3a" d="M 246.5,201.5 C 241.39,207.234 235.056,211.234 227.5,213.5C 227.511,211.983 228.177,210.816 229.5,210C 231.556,209.689 233.556,209.189 235.5,208.5C 238.376,206.119 241.376,203.952 244.5,202C 244.167,201.667 243.833,201.333 243.5,201C 244.749,200.26 245.749,200.427 246.5,201.5 Z"/></g>
<g><path style="opacity:0.925" fill="#74243b" d="M 104.5,200.5 C 106.074,202.102 106.741,204.102 106.5,206.5C 104.926,204.898 104.259,202.898 104.5,200.5 Z"/></g>
<g><path style="opacity:0.098" fill="#1c1618" d="M 165.5,206.5 C 166.167,206.5 166.833,206.5 167.5,206.5C 167.833,207.167 168.167,207.833 168.5,208.5C 166.973,208.573 165.973,207.906 165.5,206.5 Z"/></g>
<g><path style="opacity:1" fill="#9a1e3f" d="M 167.5,206.5 C 171.685,207.755 175.352,209.755 178.5,212.5C 178.167,212.5 177.833,212.5 177.5,212.5C 176.041,212.567 174.708,212.234 173.5,211.5C 173.027,210.094 172.027,209.427 170.5,209.5C 169.508,209.672 168.842,209.338 168.5,208.5C 168.167,207.833 167.833,207.167 167.5,206.5 Z"/></g>
<g><path style="opacity:0.992" fill="#7b223b" d="M 106.5,206.5 C 108.065,208.509 109.065,210.843 109.5,213.5C 107.166,211.824 106.166,209.491 106.5,206.5 Z"/></g>
<g><path style="opacity:0.184" fill="#1e1719" d="M 170.5,209.5 C 172.027,209.427 173.027,210.094 173.5,211.5C 171.973,211.573 170.973,210.906 170.5,209.5 Z"/></g>
<g><path style="opacity:0.192" fill="#2b2023" d="M 177.5,212.5 C 177.833,212.5 178.167,212.5 178.5,212.5C 179.5,212.833 180.167,213.5 180.5,214.5C 178.973,214.573 177.973,213.906 177.5,212.5 Z"/></g>
<g><path style="opacity:1" fill="#8c203a" d="M 227.5,213.5 C 215.3,218.279 202.634,219.446 189.5,217C 186.809,216.844 184.476,216.011 182.5,214.5C 188.735,215.921 195.068,216.588 201.5,216.5C 210.209,215.932 218.876,214.932 227.5,213.5 Z"/></g>
<g><path style="opacity:0.031" fill="#080607" d="M 295.5,216.5 C 295.539,219.089 294.539,221.089 292.5,222.5C 292.992,220.181 293.992,218.181 295.5,216.5 Z"/></g>
<g><path style="opacity:0.914" fill="#7e1f38" d="M 347.5,222.5 C 347.667,228.503 346.667,234.17 344.5,239.5C 344.926,233.611 345.926,227.944 347.5,222.5 Z"/></g>
<g><path style="opacity:0.041" fill="#171113" d="M 292.5,222.5 C 291.728,226.598 289.728,229.931 286.5,232.5C 288.11,228.9 290.11,225.566 292.5,222.5 Z"/></g>
<g><path style="opacity:1" fill="#b4113d" d="M 109.5,214.5 C 113.76,222.754 118.426,230.754 123.5,238.5C 121.425,236.792 119.259,236.125 117,236.5C 116.383,237.449 116.549,238.282 117.5,239C 115.912,241.043 114.579,240.876 113.5,238.5C 116.028,237.483 116.028,236.316 113.5,235C 114.715,232.904 115.549,233.071 116,235.5C 117.827,233.76 117.66,232.093 115.5,230.5C 114.186,231.313 113.019,232.313 112,233.5C 111.06,235.942 109.894,238.275 108.5,240.5C 106.7,236.908 107.534,234.241 111,232.5C 111.576,230.623 111.409,228.789 110.5,227C 111.167,226 111.833,225 112.5,224C 110.496,221.151 109.496,217.985 109.5,214.5 Z"/></g>
<g><path style="opacity:0.122" fill="#110d0f" d="M 286.5,232.5 C 286.573,234.027 285.906,235.027 284.5,235.5C 284.427,233.973 285.094,232.973 286.5,232.5 Z"/></g>
<g><path style="opacity:0.718" fill="#401c26" d="M 284.5,235.5 C 284.573,237.027 283.906,238.027 282.5,238.5C 282.427,236.973 283.094,235.973 284.5,235.5 Z"/></g>
<g><path style="opacity:0.918" fill="#52212e" d="M 124.5,238.5 C 125.906,238.973 126.573,239.973 126.5,241.5C 125.094,241.027 124.427,240.027 124.5,238.5 Z"/></g>
<g><path style="opacity:0.392" fill="#332026" d="M 282.5,238.5 C 282.043,240.773 280.71,242.106 278.5,242.5C 279.402,240.659 280.736,239.326 282.5,238.5 Z"/></g>
<g><path style="opacity:0.054" fill="#0f0a0b" d="M 61.5,238.5 C 62.64,241.368 63.64,244.368 64.5,247.5C 64.5,248.167 64.5,248.833 64.5,249.5C 62.4318,246.237 61.4318,242.57 61.5,238.5 Z"/></g>
<g><path style="opacity:0.204" fill="#1c1619" d="M 278.5,242.5 C 278.5,243.833 277.833,244.5 276.5,244.5C 276.833,243.5 277.5,242.833 278.5,242.5 Z"/></g>
<g><path style="opacity:0.145" fill="#181416" d="M 276.5,244.5 C 276.5,246.5 275.5,247.5 273.5,247.5C 274.167,246.167 275.167,245.167 276.5,244.5 Z"/></g>
<g><path style="opacity:1" fill="#722337" d="M 64.5,247.5 C 66.2451,249.033 67.2451,251.033 67.5,253.5C 66.8333,253.167 66.1667,252.833 65.5,252.5C 64.596,251.791 64.2627,250.791 64.5,249.5C 64.5,248.833 64.5,248.167 64.5,247.5 Z"/></g>
<g><path style="opacity:0.31" fill="#2b1d22" d="M 273.5,247.5 C 273.5,249.5 272.5,250.5 270.5,250.5C 271.167,249.167 272.167,248.167 273.5,247.5 Z"/></g>
<g><path style="opacity:0.965" fill="#5e2534" d="M 138.5,252.5 C 140.19,252.856 141.19,253.856 141.5,255.5C 139.81,255.144 138.81,254.144 138.5,252.5 Z"/></g>
<g><path style="opacity:0.482" fill="#44272f" d="M 268.5,252.5 C 267.738,254.262 266.404,255.262 264.5,255.5C 265.262,253.738 266.596,252.738 268.5,252.5 Z"/></g>
<g><path style="opacity:0.937" fill="#85213a" d="M 344.5,239.5 C 343.164,248.56 340.164,256.893 335.5,264.5C 335.643,262.738 335.309,261.071 334.5,259.5C 335.953,259.94 337.119,259.274 338,257.5C 339.458,251.119 341.624,245.119 344.5,239.5 Z"/></g>
<g><path style="opacity:0.058" fill="#0b0708" d="M 65.5,252.5 C 66.1667,252.833 66.8333,253.167 67.5,253.5C 67.5,254.833 67.5,256.167 67.5,257.5C 66.4625,256.07 65.7959,254.403 65.5,252.5 Z"/></g>
<g><path style="opacity:1" fill="#741e33" d="M 67.5,253.5 C 69.6418,256.8 70.9751,260.467 71.5,264.5C 71.1667,264.5 70.8333,264.5 70.5,264.5C 69.0883,262.396 68.0883,260.063 67.5,257.5C 67.5,256.167 67.5,254.833 67.5,253.5 Z"/></g>
<g><path style="opacity:0.518" fill="#42242c" d="M 264.5,255.5 C 263.965,257.446 262.632,258.446 260.5,258.5C 261.436,257.026 262.77,256.026 264.5,255.5 Z"/></g>
<g><path style="opacity:0.227" fill="#2c1f23" d="M 260.5,258.5 C 260.027,259.906 259.027,260.573 257.5,260.5C 257.973,259.094 258.973,258.427 260.5,258.5 Z"/></g>
<g><path style="opacity:0.31" fill="#332228" d="M 255.5,261.5 C 255.027,262.906 254.027,263.573 252.5,263.5C 252.973,262.094 253.973,261.427 255.5,261.5 Z"/></g>
<g><path style="opacity:1" fill="#90213c" d="M 149.5,260.5 C 152.902,262.528 156.235,264.528 159.5,266.5C 156.997,265.916 154.497,265.249 152,264.5C 150.405,263.644 149.572,262.311 149.5,260.5 Z"/></g>
<g><path style="opacity:0.102" fill="#110d0f" d="M 249.5,264.5 C 249.027,265.906 248.027,266.573 246.5,266.5C 246.973,265.094 247.973,264.427 249.5,264.5 Z"/></g>
<g><path style="opacity:0.047" fill="#130d0f" d="M 70.5,264.5 C 70.8333,264.5 71.1667,264.5 71.5,264.5C 71.8333,265.833 72.1667,267.167 72.5,268.5C 70.8958,267.713 70.2291,266.38 70.5,264.5 Z"/></g>
<g><path style="opacity:0.041" fill="#0e0a0b" d="M 72.5,268.5 C 74.0075,270.181 75.0075,272.181 75.5,274.5C 73.461,273.089 72.461,271.089 72.5,268.5 Z"/></g>
<g><path style="opacity:0.996" fill="#682736" d="M 246.5,266.5 C 246.672,267.492 246.338,268.158 245.5,268.5C 243.565,269.15 241.565,269.483 239.5,269.5C 241.649,268.264 243.982,267.264 246.5,266.5 Z"/></g>
<g><path style="opacity:0.216" fill="#302025" d="M 238.5,269.5 C 237.713,271.104 236.38,271.771 234.5,271.5C 235.514,270.326 236.847,269.66 238.5,269.5 Z"/></g>
<g><path style="opacity:1" fill="#89243d" d="M 160.5,266.5 C 165.582,268.522 170.582,270.522 175.5,272.5C 171.224,272.547 167.224,271.547 163.5,269.5C 161.55,270.152 160.55,269.152 160.5,266.5 Z"/></g>
<g><path style="opacity:1" fill="#a9153c" d="M 245.5,268.5 C 244.517,269.85 243.184,270.85 241.5,271.5C 240.667,273.167 239.833,274.833 239,276.5C 238.51,275.207 238.343,273.873 238.5,272.5C 229.114,275.507 219.448,276.841 209.5,276.5C 209.5,276.167 209.5,275.833 209.5,275.5C 214.167,275.167 218.833,274.833 223.5,274.5C 226.152,274.59 228.485,273.924 230.5,272.5C 231.568,271.566 232.901,271.232 234.5,271.5C 236.38,271.771 237.713,271.104 238.5,269.5C 238.833,269.5 239.167,269.5 239.5,269.5C 241.565,269.483 243.565,269.15 245.5,268.5 Z"/></g>
<g><path style="opacity:0.949" fill="#6e2a3c" d="M 230.5,272.5 C 228.485,273.924 226.152,274.59 223.5,274.5C 225.515,273.076 227.848,272.41 230.5,272.5 Z"/></g>
<g><path style="opacity:1" fill="#982643" d="M 175.5,272.5 C 186.669,275.026 198.003,276.026 209.5,275.5C 209.5,275.833 209.5,276.167 209.5,276.5C 199.828,276.666 190.161,276.5 180.5,276C 178.569,275.098 176.903,273.931 175.5,272.5 Z"/></g>
<g><path style="opacity:0.043" fill="#140e0f" d="M 75.5,274.5 C 76.9063,274.973 77.573,275.973 77.5,277.5C 76.0937,277.027 75.427,276.027 75.5,274.5 Z"/></g>
<g><path style="opacity:0.051" fill="#1e1619" d="M 78.5,279.5 C 79.9063,279.973 80.573,280.973 80.5,282.5C 79.0937,282.027 78.427,281.027 78.5,279.5 Z"/></g>
<g><path style="opacity:1" fill="#9f1a3c" d="M 335.5,264.5 C 333.034,271.297 329.701,277.63 325.5,283.5C 323.952,283.821 323.285,284.821 323.5,286.5C 317.862,294.799 311.528,302.466 304.5,309.5C 304.201,307.396 304.534,305.396 305.5,303.5C 308.231,301.735 310.898,300.068 313.5,298.5C 312.533,294.149 314.2,291.815 318.5,291.5C 318.277,289.658 317.943,287.825 317.5,286C 317.833,285.167 318.167,284.333 318.5,283.5C 320.267,287.317 321.6,286.983 322.5,282.5C 321.189,281.742 320.689,280.742 321,279.5C 322.699,280.406 324.533,280.739 326.5,280.5C 328.515,275.142 330.515,269.809 332.5,264.5C 333.5,264.5 334.5,264.5 335.5,264.5 Z"/></g>
<g><path style="opacity:0.037" fill="#120e0f" d="M 80.5,282.5 C 81.9744,283.436 82.9744,284.77 83.5,286.5C 81.5544,285.965 80.5544,284.632 80.5,282.5 Z"/></g>
<g><path style="opacity:0.906" fill="#5c2030" d="M 325.5,283.5 C 325.068,284.71 324.401,285.71 323.5,286.5C 323.285,284.821 323.952,283.821 325.5,283.5 Z"/></g>
<g><path style="opacity:0.031" fill="#1f1518" d="M 85.5,290.5 C 87.1436,290.81 88.1436,291.81 88.5,293.5C 86.8564,293.19 85.8564,292.19 85.5,290.5 Z"/></g>
<g><path style="opacity:0.063" fill="#0a0608" d="M 88.5,293.5 C 89.9063,293.973 90.573,294.973 90.5,296.5C 89.0937,296.027 88.427,295.027 88.5,293.5 Z"/></g>
<g><path style="opacity:0.033" fill="#23181b" d="M 90.5,296.5 C 92.785,298.118 94.785,300.118 96.5,302.5C 93.5222,301.522 91.5222,299.522 90.5,296.5 Z"/></g>
<g><path style="opacity:0.098" fill="#23171b" d="M 97.5,304.5 C 99.5,304.5 100.5,305.5 100.5,307.5C 99.1667,306.833 98.1667,305.833 97.5,304.5 Z"/></g>
<g><path style="opacity:0.651" fill="#3a2229" d="M 100.5,307.5 C 101.167,307.5 101.833,307.5 102.5,307.5C 104.167,309.5 105.833,311.5 107.5,313.5C 104.573,312.243 102.239,310.243 100.5,307.5 Z"/></g>
<g><path style="opacity:1" fill="#af133c" d="M 102.5,307.5 C 104.712,308.645 107.045,309.645 109.5,310.5C 108.529,311.962 108.862,313.295 110.5,314.5C 114.232,312.326 117.899,310.492 121.5,309C 121.957,309.414 122.291,309.914 122.5,310.5C 121.24,311.382 120.074,312.382 119,313.5C 117.16,312.167 116.66,312.334 117.5,314C 116.09,314.368 115.09,315.201 114.5,316.5C 115.785,320.099 117.619,320.766 120,318.5C 121.505,323.197 124.005,324.197 127.5,321.5C 128.257,326.419 131.257,329.252 136.5,330C 137.252,330.671 137.586,331.504 137.5,332.5C 136.833,332.5 136.167,332.5 135.5,332.5C 134.209,332.737 133.209,332.404 132.5,331.5C 132.027,330.094 131.027,329.427 129.5,329.5C 129.027,328.094 128.027,327.427 126.5,327.5C 125.508,327.672 124.842,327.338 124.5,326.5C 124.027,325.094 123.027,324.427 121.5,324.5C 120.508,324.672 119.842,324.338 119.5,323.5C 119.5,322.167 118.833,321.5 117.5,321.5C 115.596,321.262 114.262,320.262 113.5,318.5C 112.738,316.738 111.404,315.738 109.5,315.5C 108.5,315.167 107.833,314.5 107.5,313.5C 105.833,311.5 104.167,309.5 102.5,307.5 Z"/></g>
<g><path style="opacity:1" fill="#8c1e39" d="M 300.5,312.5 C 298.817,314.514 296.817,316.18 294.5,317.5C 294.5,316.5 294.5,315.5 294.5,314.5C 295.5,314.5 296.5,314.5 297.5,314.5C 297.5,313.167 297.5,311.833 297.5,310.5C 299.179,310.285 300.179,310.952 300.5,312.5 Z"/></g>
<g><path style="opacity:0.094" fill="#231a1d" d="M 109.5,315.5 C 111.404,315.738 112.738,316.738 113.5,318.5C 111.596,318.262 110.262,317.262 109.5,315.5 Z"/></g>
<g><path style="opacity:0.255" fill="#22191c" d="M 117.5,321.5 C 118.833,321.5 119.5,322.167 119.5,323.5C 118.5,323.167 117.833,322.5 117.5,321.5 Z"/></g>
<g><path style="opacity:1" fill="#9b1e3b" d="M 292.5,318.5 C 288.139,322.866 283.139,326.533 277.5,329.5C 277.34,327.801 277.506,326.134 278,324.5C 279.494,325.747 280.994,325.747 282.5,324.5C 282.167,323.833 281.833,323.167 281.5,322.5C 282.716,321.904 284.049,321.737 285.5,322C 284.549,321.282 284.383,320.449 285,319.5C 286.049,320.517 287.216,320.684 288.5,320C 288.043,319.586 287.709,319.086 287.5,318.5C 289.299,317.212 290.965,317.212 292.5,318.5 Z"/></g>
<g><path style="opacity:0.157" fill="#22191c" d="M 121.5,324.5 C 123.027,324.427 124.027,325.094 124.5,326.5C 122.973,326.573 121.973,325.906 121.5,324.5 Z"/></g>
<g><path style="opacity:0.247" fill="#2b1e22" d="M 126.5,327.5 C 128.027,327.427 129.027,328.094 129.5,329.5C 127.973,329.573 126.973,328.906 126.5,327.5 Z"/></g>
<g><path style="opacity:0.157" fill="#1d171a" d="M 129.5,329.5 C 131.027,329.427 132.027,330.094 132.5,331.5C 130.973,331.573 129.973,330.906 129.5,329.5 Z"/></g>
<g><path style="opacity:1" fill="#801f35" d="M 137.5,332.5 C 138.873,332.343 140.207,332.51 141.5,333C 143.635,335.333 146.302,336.833 149.5,337.5C 149.863,338.183 150.196,338.85 150.5,339.5C 146.203,338.345 142.203,336.679 138.5,334.5C 138.167,333.833 137.833,333.167 137.5,332.5 Z"/></g>
<g><path style="opacity:0.129" fill="#281b1f" d="M 135.5,332.5 C 136.167,332.5 136.833,332.5 137.5,332.5C 137.833,333.167 138.167,333.833 138.5,334.5C 136.973,334.573 135.973,333.906 135.5,332.5 Z"/></g>
<g><path style="opacity:1" fill="#802239" d="M 269.5,333.5 C 266.205,335.159 262.872,336.826 259.5,338.5C 261.643,334.771 264.977,333.104 269.5,333.5 Z"/></g>
<g><path style="opacity:0.988" fill="#772337" d="M 257.5,338.5 C 255.75,339.87 253.75,340.87 251.5,341.5C 252.607,339.031 254.607,338.031 257.5,338.5 Z"/></g>
<g><path style="opacity:0.996" fill="#551f2c" d="M 150.5,339.5 C 152.698,339.12 154.365,339.787 155.5,341.5C 153.597,341.204 151.93,340.537 150.5,339.5 Z"/></g>
<g><path style="opacity:0.996" fill="#7b273b" d="M 163.5,343.5 C 167.479,343.742 171.146,344.742 174.5,346.5C 170.475,346.37 166.809,345.37 163.5,343.5 Z"/></g>
<g><path style="opacity:1" fill="#84253c" d="M 250.5,341.5 C 231.351,348.331 211.685,350.665 191.5,348.5C 201.867,348.681 212.2,348.181 222.5,347C 231.717,344.914 241.051,343.081 250.5,341.5 Z"/></g>
<g><path style="opacity:0.624" fill="#542b36" d="M 176.5,346.5 C 179.495,346.294 182.162,346.96 184.5,348.5C 181.572,348.435 178.905,347.768 176.5,346.5 Z"/></g>
</svg>
